<?xml version="1.0" encoding="UTF-8" standalone="no"?>
<!-- Created with Inkscape (http://www.inkscape.org/) -->

<svg
   width="105.72565mm"
   height="66.454445mm"
   viewBox="0 0 105.72565 66.454445"
   version="1.1"
   id="svg5"
   inkscape:version="1.1 (c68e22c387, 2021-05-23)"
   sodipodi:docname="capa.svg"
   xmlns:inkscape="http://www.inkscape.org/namespaces/inkscape"
   xmlns:sodipodi="http://sodipodi.sourceforge.net/DTD/sodipodi-0.dtd"
   xmlns:xlink="http://www.w3.org/1999/xlink"
   xmlns="http://www.w3.org/2000/svg"
   xmlns:svg="http://www.w3.org/2000/svg">
  <sodipodi:namedview
     id="namedview7"
     pagecolor="#ffffff"
     bordercolor="#666666"
     borderopacity="1.0"
     inkscape:pageshadow="2"
     inkscape:pageopacity="0.0"
     inkscape:pagecheckerboard="0"
     inkscape:document-units="mm"
     showgrid="false"
     inkscape:snap-global="false"
     inkscape:zoom="1.5287037"
     inkscape:cx="134.42762"
     inkscape:cy="126.57783"
     inkscape:window-width="1920"
     inkscape:window-height="1017"
     inkscape:window-x="-8"
     inkscape:window-y="-8"
     inkscape:window-maximized="1"
     inkscape:current-layer="layer1" />
  <defs
     id="defs2">
    <clipPath
       id="A">
      <path
         d="M 0,216 H 216 V 0 H 0 Z"
         id="path879" />
    </clipPath>
    <clipPath
       id="B">
      <path
         d="m 121.724,55.66 c 0.343,1.114 0.4,2.832 -3.038,2.054 0,0 -9.395,-1.342 -9.843,-12.303 l -0.214,-21 h -2.258 l -0.213,21 c -0.448,10.96 -9.842,12.303 -9.842,12.303 -3.428,0.778 -3.383,-0.938 -3.04,-2.052 -3.37,5.738 -12.394,4.996 -12.394,4.996 -3.133,-1.117 -0.224,-3.13 -0.224,-3.13 4.92,-1.788 5.37,-7.158 5.37,-7.158 V 35.2 l 0.52,-11.728 c 1.117,-5.224 3.874,-8.312 6.578,-10.13 l 28.803,0.033 c 3.484,2.365 7.047,6.846 7.047,15.307 V 50.37 c 0,0 0.447,5.37 5.37,7.158 0,0 2.906,2.014 -0.225,3.13 0,0 -0.382,0.03 -1.017,0.032 -2.455,0 -8.7,-0.47 -11.378,-5.03 M 94.53,34.04 v 16.552 c 0,1.617 -0.285,2.977 -0.773,4.12 3.24,-2.526 3.457,-8.855 3.457,-8.855 v -20.66 c -3.225,2.282 -2.684,8.846 -2.684,8.846 M 117.8,45.86 c 0,0 0.217,6.33 3.456,8.855 -0.487,-1.143 -0.772,-2.503 -0.772,-4.12 V 34.042 c 0,0 0.54,-6.1 -2.684,-8.612 z"
         id="path882" />
    </clipPath>
    <clipPath
       id="C">
      <path
         d="M 0,216 H 216 V 0 H 0 Z"
         id="path885" />
    </clipPath>
    <path
       id="D"
       d="m 158.542,54.996 c 0,-9.73 -22.538,-17.617 -50.34,-17.617 -27.802,0 -50.34,7.887 -50.34,17.617 0,9.73 22.537,17.62 50.34,17.62 27.803,0 50.34,-7.9 50.34,-17.62" />
    <path
       id="E"
       d="m 75.282,93.676 c 0,-0.555 -0.65,-1.006 -1.454,-1.006 -0.804,0 -1.455,0.45 -1.455,1.006 0,0.556 0.65,1.008 1.455,1.008 0.805,0 1.454,-0.45 1.454,-1.008" />
  </defs>
  <g
     inkscape:label="Camada 1"
     inkscape:groupmode="layer"
     id="layer1"
     transform="translate(-50.131851,-153.95661)">
    <g
       transform="matrix(0.18793646,0,0,-0.18793646,46.785643,227.43593)"
       id="g926">
      <g
         clip-path="url(#C)"
         id="g894">
        <use
           xlink:href="#D"
           fill="#a0dcf2"
           id="use892"
           x="0"
           y="0"
           width="100%"
           height="100%" />
      </g>
      <g
         clip-path="url(#B)"
         id="g898">
        <use
           xlink:href="#D"
           fill="#82bde7"
           id="use896"
           x="0"
           y="0"
           width="100%"
           height="100%" />
      </g>
      <g
         clip-path="url(#A)"
         id="g924">
        <path
           d="m 50.7,106.8 -1.453,-5.063 c 0,0 -0.378,-1.83 1.346,-2.154 1.8,0.035 1.653,1.72 1.527,2.266 l -1.42,4.95 z"
           fill="#a0dcf2"
           id="path900" />
        <path
           d="m 197.042,128.027 0.133,0.658 c -14.768,2.953 -29.922,2.983 -39.1,2.602 1.506,5.426 1.96,11.67 1.96,18.633 0,9.986 -3.752,17.975 -9.843,24.054 1.065,3.435 2.487,11.066 -1.42,20.833 0,0 -6.9,2.188 -22.476,-8.243 -6.106,1.526 -12.604,2.28 -19.112,2.28 -7.16,0 -14.395,-0.912 -21.143,-2.763 -16.086,10.975 -23.186,8.727 -23.186,8.727 -4.636,-11.6 -1.77,-20.17 -0.9,-22.302 -5.448,-5.88 -8.774,-13.384 -8.774,-22.585 0,-6.947 0.792,-13.178 2.724,-18.594 -9.247,0.336 -23.85,0.207 -38.1,-2.64 l 0.132,-0.658 c 14.325,2.865 29.018,2.965 38.2,2.617 0.425,-1.12 0.9,-2.2 1.43,-3.26 -9.088,-0.293 -24.604,-1.45 -39.475,-5.646 l 0.182,-0.645 c 14.988,4.227 30.64,5.356 39.64,5.63 5.43,-10.12 16.135,-16.658 35.18,-18.7 -2.704,-1.816 -5.46,-4.904 -6.58,-10.13 -3.683,-1.76 -15.343,-6.062 -22.34,5.97 0,0 -3.916,7.16 -11.412,7.72 0,0 -7.27,0.1 -0.503,-4.53 0,0 4.867,-2.293 8.223,-10.9 0,0 4.38,-14.695 25.512,-9.98 v -15.18 c 0,0 -0.447,-5.37 -5.37,-7.158 0,0 -2.908,-2.014 0.224,-3.13 0,0 13.645,-1.12 13.645,10.065 v 16.552 c 0,0 -0.54,6.565 2.683,8.846 V 68.963 c 0,0 -0.222,-6.487 -3.578,-8.948 0,0 -2.237,-4.025 2.684,-2.908 0,0 9.394,1.342 9.842,12.303 l 0.214,27.513 h 2.257 L 108.81,69.41 c 0.447,-10.96 9.842,-12.303 9.842,-12.303 4.92,-1.117 2.683,2.908 2.683,2.908 -3.355,2.46 -3.578,8.948 -3.578,8.948 v 26.953 c 3.223,-2.5 2.684,-8.612 2.684,-8.612 V 70.752 c 0,-11.184 13.644,-10.065 13.644,-10.065 3.13,1.117 0.225,3.13 0.225,3.13 -4.922,1.8 -5.37,7.158 -5.37,7.158 v 21.697 c 0,8.46 -3.563,12.942 -7.047,15.307 20.3,2.014 30.056,8.572 34.548,18.762 8.896,-0.244 24.906,-1.328 40.22,-5.65 l 0.182,0.645 c -15.227,4.295 -31.13,5.406 -40.117,5.668 0.426,1.03 0.797,2.1 1.127,3.2 9.105,0.4 24.328,0.385 39.154,-2.58"
           fill="#292929"
           id="path902" />
        <path
           d="m 140.178,150.4 c 4.375,-3.963 6.934,-8.75 6.934,-13.905 0,-24.075 -17.948,-24.728 -40.085,-24.728 -22.137,0 -40.087,3.323 -40.087,24.718 0,5.122 2.524,9.878 6.845,13.825 7.206,6.578 19.404,3.095 33.24,3.095 13.782,0 25.934,3.518 33.15,-3.015"
           fill="#f5cdb5"
           id="path904" />
        <path
           d="m 93.697,135.258 c 0,-6.63 -3.734,-12.006 -8.34,-12.006 -4.606,0 -8.342,5.375 -8.342,12.006 0,6.631 3.736,12.004 8.342,12.004 4.606,0 8.34,-5.373 8.34,-12.004"
           fill="#ffffff"
           id="path906" />
        <path
           d="m 91.02,135.107 c 0,-4.42 -2.5,-8.002 -5.56,-8.002 -3.06,0 -5.56,3.582 -5.56,8.002 0,4.42 2.488,8.006 5.56,8.006 3.072,0 5.56,-3.584 5.56,-8.006"
           fill="#b1645a"
           id="path908" />
        <path
           d="m 138.443,135.258 c 0,-6.63 -3.734,-12.006 -8.342,-12.006 -4.608,0 -8.34,5.375 -8.34,12.006 0,6.631 3.735,12.004 8.34,12.004 4.605,0 8.342,-5.373 8.342,-12.004"
           fill="#ffffff"
           id="path910" />
        <path
           d="m 135.766,135.107 c 0,-4.42 -2.5,-8.002 -5.56,-8.002 -3.06,0 -5.56,3.582 -5.56,8.002 0,4.42 2.5,8.006 5.56,8.006 3.06,0 5.56,-3.584 5.56,-8.006 m -26.536,-10.5 c 0,-1.152 -0.934,-2.086 -2.086,-2.086 -1.152,0 -2.086,0.934 -2.086,2.086 0,1.152 0.933,2.086 2.086,2.086 1.153,0 2.086,-0.934 2.086,-2.086 m -6.945,-5.275 a 0.67082673,0.67082673 0 1 0 1.265,0.447 c 0.536,-1.515 1.973,-2.533 3.577,-2.533 1.604,0 3.04,1.018 3.578,2.533 a 0.67035532,0.67035532 0 1 0 1.264,-0.447 5.15,5.15 0 0 0 -9.684,0"
           fill="#b1645a"
           id="path912" />
        <g
           fill="#c5e6da"
           id="g922">
          <path
             d="m 56.04,109.785 c 0,-0.557 -0.652,-1.006 -1.455,-1.006 -0.803,0 -1.454,0.45 -1.454,1.006 0,0.556 0.65,1.008 1.454,1.008 0.804,0 1.455,-0.45 1.455,-1.008 m 4.028,-2.235 c 0,-0.557 -0.652,-1.008 -1.455,-1.008 -0.803,0 -1.454,0.45 -1.454,1.008 0,0.558 0.65,1.006 1.454,1.006 0.804,0 1.455,-0.45 1.455,-1.006 m 2.462,-2.9 c 0,-0.555 -0.65,-1.006 -1.455,-1.006 -0.805,0 -1.453,0.45 -1.453,1.006 0,0.556 0.65,1.008 1.453,1.008 0.803,0 1.455,-0.45 1.455,-1.008 m 2.235,-3.357 c 0,-0.557 -0.65,-1.008 -1.453,-1.008 -0.803,0 -1.455,0.45 -1.455,1.008 0,0.558 0.65,1.008 1.455,1.008 0.805,0 1.453,-0.45 1.453,-1.008 m 2.462,-3.143 c 0,-0.555 -0.65,-1.006 -1.454,-1.006 -0.804,0 -1.455,0.45 -1.455,1.006 0,0.556 0.652,1.008 1.455,1.008 0.803,0 1.454,-0.45 1.454,-1.008 m 3.357,-2.683 c 0,-0.557 -0.65,-1.008 -1.455,-1.008 -0.805,0 -1.453,0.45 -1.453,1.008 0,0.558 0.65,1.006 1.453,1.006 0.803,0 1.455,-0.45 1.455,-1.006"
             id="path914" />
          <use
             xlink:href="#E"
             id="use916"
             x="0"
             y="0"
             width="100%"
             height="100%" />
          <use
             xlink:href="#E"
             x="4.6760001"
             id="use918"
             y="0"
             width="100%"
             height="100%" />
          <path
             d="m 84.704,94.455 c 0,-0.557 -0.65,-1.008 -1.454,-1.008 -0.804,0 -1.455,0.45 -1.455,1.008 0,0.558 0.65,1.008 1.455,1.008 0.805,0 1.454,-0.45 1.454,-1.008"
             id="path920" />
        </g>
      </g>
    </g>
    <path
       d="m 94.914298,197.42797 c 1.041053,0 2.226906,-0.25837 3.582167,-0.77416 v 3.32474 c -0.300959,0.10789 -0.731576,0.22714 -1.290905,0.35491 0.172247,0.49497 0.25837,0.95776 0.25837,1.38744 0,1.37702 -0.41926,2.58181 -1.258727,3.61529 a 4.8550899,4.8550899 0 0 1 -3.195084,1.79818 c -0.85177,0.12871 -1.290905,0.59151 -1.290905,1.38744 0,0.28013 0.140069,0.56784 0.41926,0.83946 0.365315,0.40885 0.903823,0.66722 1.613631,0.77417 3.075837,0.4732 4.615648,1.7537 4.615648,3.84054 0,3.33515 -1.990303,5.00273 -5.962391,5.00273 -1.635399,0 -2.981195,-0.29055 -4.034551,-0.8707 -1.324976,-0.73158 -2.000714,-1.89283 -2.000714,-3.4544 0,-1.79819 1.000357,-3.04461 3.000124,-3.71183 v -0.0644 c -0.731576,-0.45143 -1.097837,-1.14042 -1.097837,-2.06506 0,-1.20479 0.344494,-1.95908 1.041052,-2.25909 v -0.0643 c -0.688987,-0.23661 -1.301315,-0.77417 -1.839823,-1.61364 -0.602864,-0.90382 -0.903823,-1.872 -0.903823,-2.90548 0,-1.54927 0.548919,-2.83923 1.646756,-3.87271 a 5.3945444,5.3945444 0 0 1 3.785645,-1.4518 5.8204294,5.8204294 0 0 1 2.936714,0.77417 m -4.840894,4.58252 c 0,1.48587 0.677631,2.22691 2.032892,2.22691 1.312672,0 1.968535,-0.75335 1.968535,-2.25909 0,-0.62463 -0.151426,-1.16219 -0.451438,-1.61363 -0.365315,-0.49497 -0.870698,-0.74199 -1.517097,-0.74199 -1.355261,0 -2.032892,0.79499 -2.032892,2.38875 m 4.970552,12.39325 c 0,-1.09784 -0.903822,-1.64675 -2.711468,-1.64675 -1.743289,0 -2.613988,0.56974 -2.613988,1.71016 0,1.11866 0.946411,1.67799 2.839234,1.67799 1.65622,0 2.485276,-0.5811 2.485276,-1.7414 m 7.071583,-20.09893 c -0.62463,0 -1.16219,-0.23661 -1.61363,-0.70981 a 2.4133488,2.4133488 0 0 1 -0.645452,-1.67799 c 0,-0.66722 0.214832,-1.23696 0.645452,-1.71017 0.45144,-0.4732 0.98995,-0.7098 1.61363,-0.7098 0.60287,0 1.11866,0.2366 1.54928,0.7098 0.45144,0.47321 0.67763,1.0439 0.67763,1.71017 a 2.3471,2.3471 0 0 1 -0.67763,1.67799 c -0.43062,0.4732 -0.94641,0.70981 -1.54928,0.70981 m -1.83982,16.84612 c 0.0426,-0.43062 0.0644,-1.1622 0.0644,-2.19568 v -10.0348 l -0.0644,-2.09819 h 3.638 c -0.0426,0.40885 -0.0644,1.08648 -0.0644,2.03289 v 9.90893 l 0.0644,2.38874 h -3.64747 m 10.41053,-14.33056 h 2.808 v 3.13073 a 9.4451847,9.4451847 0 0 1 -0.61327,-0.0322 l -0.80729,-0.0322 h -1.38744 v 6.00309 c 0,1.44138 0.4732,2.16255 1.41962,2.16255 a 3.1420855,3.1420855 0 0 0 1.80764,-0.54892 v 3.2178 c -0.79498,0.43062 -1.7537,0.64545 -2.87236,0.64545 -1.57104,0 -2.65752,-0.56785 -3.25944,-1.67799 -0.45144,-0.83946 -0.67763,-2.16255 -0.67763,-3.96925 v -5.77689 h 0.0322 v -0.0644 l -0.48456,-0.0322 a 8.1486012,8.1486012 0 0 0 -1.09784,0.0965 v -3.13073 h 1.58051 v -1.25873 c 0,-0.60286 -0.0322,-1.08648 -0.0965,-1.45274 h 3.74401 c -0.0644,0.40885 -0.0965,0.8707 -0.0965,1.38744 v 1.32309 m 11.45158,-0.0871 c -0.92559,0 -1.89282,0.32178 -2.90548,0.96817 V 192.038 l 0.0643,-2.42092 h -3.67964 c 0.0643,0.3445 0.0965,1.15084 0.0965,2.42092 v 17.07326 l -0.0965,2.03289 h 3.744 c 0,-0.0643 -0.0218,-0.32178 -0.0644,-0.77605 l -0.0643,-1.25873 v -7.93661 c 0.75334,-0.70981 1.48586,-1.06471 2.19567,-1.06471 0.8177,0 1.44138,0.40885 1.872,1.22655 0.32178,0.64545 0.48456,1.45274 0.48456,2.42092 l -0.0322,4.35728 c 0,0.73157 -0.054,1.74139 -0.16089,3.03419 h 3.90489 c -0.0946,-0.53756 -0.12871,-1.52751 -0.12871,-2.96889 v -4.42163 c 0,-1.87201 -0.41926,-3.46387 -1.25873,-4.77654 -0.94641,-1.51426 -2.27139,-2.25909 -3.97019,-2.25909 m 12.40177,14.55297 c -1.69976,0 -2.95848,-0.75334 -3.78565,-2.25908 -0.64545,-1.22655 -0.96818,-2.83924 -0.96818,-4.80777 v -4.42164 l -0.12871,-2.96889 h 3.87272 c -0.0644,0.47321 -0.10789,1.48587 -0.12871,3.0342 l -0.0322,4.35727 c 0,1.22655 0.14007,2.10861 0.41926,2.64617 0.32178,0.66722 0.91423,1.00036 1.77547,1.00036 0.60286,0 1.28049,-0.35491 2.03289,-1.06472 v -7.94985 a 14.092064,14.092064 0 0 0 -0.0644,-1.25873 l -0.0643,-0.77416 h 3.744 c -0.0426,0.36626 -0.0644,1.04389 -0.0644,2.03289 v 9.88527 l 0.0644,2.42092 h -3.50172 v -1.17166 c -0.98995,0.85177 -2.04425,1.2909 -3.16291,1.2909 m 15.87132,-0.0322 a 3.7856452,3.7856452 0 0 1 -2.90454,-1.25873 v 1.16219 h -3.42128 c 0.0644,-0.36626 0.0965,-1.04389 0.0965,-2.03289 v -17.0638 l -0.0965,-2.42092 h 3.67965 c -0.0435,0.37857 -0.0643,1.19438 -0.0643,2.42092 v 5.61601 c 0.98994,-0.62463 1.95907,-0.94641 2.90548,-0.94641 1.69975,0 3.03419,0.75334 4.00332,2.25908 0.8177,1.31267 1.22655,2.90548 1.22655,4.77654 0,1.91459 -0.43062,3.58217 -1.29091,5.00273 -1.04105,1.65622 -2.40956,2.48528 -4.13108,2.48528 m -0.48457,-11.13453 c -0.7098,0 -1.45274,0.3549 -2.2269,1.06471 v 5.59329 c 0.68899,0.66722 1.36662,1.00036 2.03289,1.00036 0.83947,0 1.47356,-0.47321 1.90418,-1.38744 0.34449,-0.73158 0.51674,-1.60322 0.51674,-2.61399 0,-2.43228 -0.74199,-3.64652 -2.22691,-3.64652"
       id="path928"
       style="stroke-width:0.946411;fill:#333333;fill-opacity:1" />
    <path
       d="m 114.15166,165.3871 c -1.18847,0 -2.07493,0.58375 -2.07493,1.98894 0,1.04866 0.58375,1.7932 2.00992,1.7932 1.20944,0 2.03089,-0.71308 2.03089,-1.83724 0,-1.27586 -0.73406,-1.9449 -1.96588,-1.9449 z m -2.37694,9.92025 c -0.28174,0.34536 -0.56208,0.71308 -0.56208,1.13604 0,0.86339 1.10109,1.12416 2.61464,1.12416 1.25349,0 2.9607,-0.0874 2.9607,-1.25349 0,-0.69211 -0.82145,-0.73546 -1.85961,-0.80047 l -3.14596,-0.21533 z m 6.39678,-9.85593 c 0.388,0.49846 0.79977,1.18847 0.79977,2.18329 0,2.39792 -1.88757,3.80311 -4.60288,3.80311 -0.69911,0 -1.31082,-0.0874 -1.70791,-0.19435 l -0.71308,1.13604 2.11828,0.12934 c 3.74019,0.23769 5.94236,0.34675 5.94236,3.21936 0,2.48601 -2.1812,3.8884 -5.94236,3.8884 -3.91148,0 -5.40196,-0.99412 -5.40196,-2.70902 0,-0.97175 0.43344,-1.49118 1.18847,-2.20496 -0.71308,-0.30062 -0.95078,-0.84172 -0.95078,-1.42477 0,-0.47539 0.2377,-0.90883 0.6271,-1.31082 l 1.33947,-1.29683 c -1.05913,-0.51734 -1.85961,-1.64289 -1.85961,-3.23334 0,-2.48531 1.64289,-4.19182 4.94964,-4.19182 0.92981,0 1.49189,0.086 1.98895,0.21672 h 4.21418 v 1.83654 l -1.98894,0.15101 m 5.78996,-3.92546 c -1.22343,0 -1.9449,-0.71308 -1.9449,-1.9463 0,-1.23321 0.71308,-1.90155 1.9449,-1.90155 1.25349,0 1.96657,0.67114 1.96657,1.90155 0,1.23042 -0.71308,1.9463 -1.96587,1.9463 z m -2.79641,12.98791 v -1.7058 l 1.10318,-0.15101 c 0.30202,-0.0433 0.34606,-0.10836 0.34606,-0.43344 v -6.35204 c 0,-0.2377 -0.065,-0.3887 -0.28174,-0.45442 l -1.1675,-0.41037 0.2377,-1.74915 h 4.47425 v 8.96947 c 0,0.34606 0.021,0.3887 0.34605,0.43345 l 1.10109,0.151 v 1.70441 h -6.16119 m 14.71609,-0.83892 c -0.9298,0.45441 -2.29165,0.87388 -3.52347,0.87388 -2.57269,0 -3.54444,-1.03607 -3.54444,-3.47943 v -5.66273 c 0,-0.12933 0,-0.21672 -0.17478,-0.21672 h -1.50307 v -1.92253 c 1.90156,-0.20973 2.65869,-1.1675 2.89638,-3.52347 h 2.05326 v 3.06906 c 0,0.1503 0,0.21672 0.17338,0.21672 h 3.04808 v 2.16022 h -3.22845 v 5.15588 c 0,1.27586 0.30341,1.77222 1.46811,1.77222 0.60543,0 1.22343,-0.15101 1.75055,-0.34536 l 0.58375,1.90156"
       fill="#362701"
       id="path973"
       style="stroke-width:0.699102;fill:#333333;fill-opacity:1" />
    <path
       d="M 99.218855,167.47042 86.263104,154.51607 c -0.745243,-0.74594 -1.955388,-0.74594 -2.702028,0 l -2.689444,2.69014 3.411616,3.41162 c 0.79348,-0.26776 1.702312,-0.0874 2.332902,0.5432 a 2.2720802,2.2720802 0 0 1 0.539007,2.34898 l 3.288574,3.28858 c 0.786489,-0.27405 1.712799,-0.0958 2.348982,0.5383 a 2.2720802,2.2720802 0 0 1 -1.01999,3.80382 2.2720802,2.2720802 0 0 1 -2.195878,-0.58865 c -0.667642,-0.66834 -0.831931,-1.64988 -0.494265,-2.47272 l -3.058569,-3.05857 v 8.07113 c 0.20973,0.10766 0.420859,0.24958 0.601227,0.42995 0.887859,0.88785 0.887859,2.32661 0,3.21586 a 2.2720802,2.2720802 0 0 1 -3.215168,0 c -0.887859,-0.88995 -0.887859,-2.32801 0,-3.21586 a 2.2860623,2.2860623 0 0 1 0.744543,-0.49637 v -8.14453 c -0.262163,-0.11186 -0.524326,-0.27545 -0.744543,-0.48937 a 2.2720802,2.2720802 0 0 1 -0.489371,-2.48531 l -3.364077,-3.36477 -8.889077,8.8681 a 1.9155384,1.9155384 0 0 0 0,2.70273 l 12.95645,12.95435 c 0.745242,0.74594 1.955387,0.74594 2.702028,0 l 12.892832,-12.89353 a 1.9155384,1.9155384 0 0 0 0,-2.70273"
       fill="#f03c2e"
       id="path975"
       style="stroke-width:0.699102" />
  </g>
</svg>
