<?xml version="1.0" encoding="UTF-8" standalone="no"?>
<!-- Created with Inkscape (http://www.inkscape.org/) -->

<svg
   width="157.39113mm"
   height="64.942924mm"
   viewBox="0 0 157.39113 64.942925"
   version="1.1"
   id="svg864"
   inkscape:version="1.1 (c68e22c387, 2021-05-23)"
   sodipodi:docname="concorrentes.svg"
   xmlns:inkscape="http://www.inkscape.org/namespaces/inkscape"
   xmlns:sodipodi="http://sodipodi.sourceforge.net/DTD/sodipodi-0.dtd"
   xmlns="http://www.w3.org/2000/svg"
   xmlns:svg="http://www.w3.org/2000/svg">
  <sodipodi:namedview
     id="namedview866"
     pagecolor="#ffffff"
     bordercolor="#666666"
     borderopacity="1.0"
     inkscape:pageshadow="2"
     inkscape:pageopacity="0.0"
     inkscape:pagecheckerboard="0"
     inkscape:document-units="mm"
     showgrid="false"
     inkscape:zoom="1.5287037"
     inkscape:cx="247.5954"
     inkscape:cy="127.88613"
     inkscape:window-width="1920"
     inkscape:window-height="1017"
     inkscape:window-x="-8"
     inkscape:window-y="-8"
     inkscape:window-maximized="1"
     inkscape:current-layer="layer1" />
  <defs
     id="defs861">
    <linearGradient
       id="A"
       x1="64.010002"
       y1="30.27"
       x2="32.990002"
       y2="54.48"
       gradientUnits="userSpaceOnUse">
      <stop
         offset=".18"
         stop-color="#0052cc"
         id="stop1035" />
      <stop
         offset="1"
         stop-color="#2684ff"
         id="stop1037" />
    </linearGradient>
  </defs>
  <g
     inkscape:label="Camada 1"
     inkscape:groupmode="layer"
     id="layer1"
     transform="translate(-22.496747,-141.57773)">
    <g
       style="fill-rule:evenodd"
       id="g1016"
       transform="matrix(0.92209566,0,0,0.92209566,45.870197,130.69931)">
      <path
         d="m 82.094,21.064 h -2.4 l 0.008,17.872 h 9.713 v -2.2 H 82.1 Z m 16.57,14.734 a 4.09,4.09 0 0 1 -2.974,1.255 c -1.828,0 -2.565,-0.9 -2.565,-2.074 0,-1.773 1.228,-2.62 3.847,-2.62 0.5,0 1.282,0.055 1.692,0.136 z M 96.18,24.966 a 8,8 0 0 0 -5.105,1.83 l 0.85,1.47 c 0.982,-0.573 2.183,-1.146 3.902,-1.146 1.965,0 2.838,1 2.838,2.7 v 0.873 c -0.382,-0.082 -1.173,-0.137 -1.664,-0.137 -4.202,0 -6.33,1.473 -6.33,4.557 0,2.756 1.692,4.147 4.256,4.147 1.728,0 3.383,-0.8 3.956,-2.074 l 0.437,1.746 h 1.692 v -9.14 c 0,-2.892 -1.255,-4.83 -4.83,-4.83 z m 12.577,12.17 c -0.9,0 -1.692,-0.1 -2.292,-0.382 v -8.267 c 0.82,-0.682 1.828,-1.173 3.1,-1.173 2.32,0 3.22,1.637 3.22,4.284 0,3.765 -1.446,5.54 -4.038,5.54 m 1,-12.17 c -2.146,0 -3.3,1.46 -3.3,1.46 V 24.12 l -0.008,-3.056 h -2.346 L 104.1,38.5 c 1.173,0.5 2.783,0.764 4.53,0.764 4.475,0 6.63,-2.865 6.63,-7.803 0,-3.902 -1.992,-6.494 -5.512,-6.494 M 55.993,23 c 2.128,0 3.492,0.7 4.393,1.42 l 1.032,-1.787 C 60.012,21.4 58.12,20.737 56.102,20.737 c -5.102,0 -8.676,3.1 -8.676,9.386 0,6.576 3.856,9.14 8.267,9.14 2.2,0 4.093,-0.518 5.32,-1.037 L 60.963,31.2 V 29 h -6.548 v 2.2 H 58.6 l 0.05,5.334 c -0.546,0.273 -1.5,0.5 -2.783,0.5 -3.547,0 -5.92,-2.23 -5.92,-6.93 0,-4.775 2.456,-7.094 6.057,-7.094 M 72.88,21.064 h -2.347 l 0.008,3 v 10.368 c 0,2.892 1.255,4.83 4.83,4.83 a 8.1,8.1 0 0 0 1.446,-0.13 v -2.107 a 7.18,7.18 0 0 1 -1.091,0.082 c -1.965,0 -2.838,-1 -2.838,-2.7 v -7.15 h 3.93 v -1.965 h -3.93 z m -8.3,17.872 h 2.347 V 25.293 H 64.58 Z m 0,-15.526 h 2.347 V 21.063 H 64.58 Z"
         fill="#8c929d"
         id="path986" />
      <path
         d="M 24.473,48.194 31.746,25.809 H 17.2 Z"
         fill="#e24329"
         id="path988" />
      <path
         d="M 24.473,48.193 17.2,25.8 H 7.006 Z"
         fill="#fc6d26"
         id="path990" />
      <path
         d="m 7.006,25.8 -2.2,6.803 c -0.202,0.62 0.02,1.3 0.547,1.684 l 19.13,13.9 z"
         fill="#fca326"
         id="path992" />
      <path
         d="M 7.006,25.8 H 17.2 L 12.82,12.318 c -0.225,-0.694 -1.207,-0.694 -1.432,0 z"
         fill="#e24329"
         id="path994" />
      <path
         d="M 24.473,48.193 31.746,25.808 H 41.94 Z"
         fill="#fc6d26"
         id="path996" />
      <path
         d="m 41.94,25.8 2.2,6.803 c 0.202,0.62 -0.02,1.3 -0.547,1.684 l -19.13,13.9 z"
         fill="#fca326"
         id="path998" />
      <path
         d="M 41.94,25.8 H 31.746 l 4.38,-13.482 c 0.225,-0.694 1.207,-0.694 1.432,0 z"
         fill="#e24329"
         id="path1000" />
    </g>
    <g
       id="g1058"
       transform="matrix(0.35491953,0,0,0.35491953,22.505901,184.06017)">
      <path
         d="m 116.87,4.58 c 11.8,0 17.5,5.8 17.5,15.14 0,7 -3.17,11.26 -9.68,12.85 8.54,1.4 12.76,6.07 12.76,14.25 0,9.24 -6.25,15.58 -19.18,15.58 H 94.43 V 4.58 Z m -14.52,7.57 V 29.4 h 13.46 c 7.48,0 10.56,-3.43 10.56,-9 0,-5.57 -3.34,-8.27 -10.56,-8.27 z m 0,24.3 v 18 h 16.2 c 7.57,0 11,-2.73 11,-8.54 0,-6.16 -3.26,-9.5 -11.17,-9.5 z M 150.4,1.5 a 4.94,4.94 0 0 1 5.28,5.28 5.28,5.28 0 0 1 -10.56,0 4.94,4.94 0 0 1 5.28,-5.28 z m -3.87,16.9 h 7.57 v 44 h -7.57 z M 183,55 a 24,24 0 0 0 4.75,-0.62 v 7.3 a 18.19,18.19 0 0 1 -5.1,0.7 c -9.42,0 -14,-5.54 -14,-13.73 V 25.43 h -7.13 v -7 h 7.13 V 9.06 H 176 v 9.33 h 11.7 v 7 H 176 v 23.1 c 0,3.87 2.3,6.5 7,6.5 z m 35.95,8.27 c -6.42,0 -11.35,-2.9 -14,-8.62 v 7.74 h -7.57 V 0 H 205 v 26.3 c 2.82,-5.8 8.1,-8.8 14.87,-8.8 11.7,0 17.6,9.94 17.6,22.88 -0.04,12.4 -6.2,22.88 -18.52,22.88 z M 217.8,24.55 c -6.8,0 -12.8,4.3 -12.8,14.08 v 3.52 c 0,9.77 5.54,14.08 12,14.08 8.54,0 12.94,-5.63 12.94,-15.84 -0.08,-10.56 -4.3,-15.84 -12.14,-15.84 z m 27.55,-6.16 h 7.57 V 45 c 0,7.92 3.17,11.44 10.38,11.44 7,0 11.88,-4.66 11.88,-13.55 V 18.4 h 7.57 v 44 h -7.57 v -7.22 a 15.43,15.43 0 0 1 -13.9,8.1 c -10.12,0 -15.93,-7 -15.93,-19.1 z m 79.9,42.86 c -2.64,1.4 -6.7,2 -10.74,2 -15.66,0 -23,-9.5 -23,-23 0,-13.3 7.3,-22.8 23,-22.8 A 23.26,23.26 0 0 1 325,19.62 v 7 a 22.17,22.17 0 0 0 -10,-2.07 c -11.44,0 -16.1,7.2 -16.1,15.75 0,8.55 4.75,15.75 16.28,15.75 a 27.78,27.78 0 0 0 10,-1.58 z m 8.63,1.14 V 0 h 7.57 v 39 l 18.92,-20.6 h 9.86 L 349.54,40 371.1,62.4 H 360.8 L 341.44,41.8 v 20.6 z m 62.3,0.88 c -16.46,0 -23.67,-9.5 -23.67,-23 0,-13.3 7.4,-22.8 20.77,-22.8 13.55,0 19,9.42 19,22.8 v 3.43 h -32.12 c 1.06,7.48 5.9,12.32 16.28,12.32 a 39,39 0 0 0 13.38,-2.37 v 7 c -3.6,1.92 -9.15,2.62 -13.64,2.62 z m -16.1,-26 h 24.55 c -0.44,-8.18 -4.14,-12.85 -11.7,-12.85 -8.02,-0.04 -12.06,5.15 -12.85,12.8 z M 438.68,55 a 24,24 0 0 0 4.75,-0.62 v 7.3 a 18.19,18.19 0 0 1 -5.1,0.7 c -9.42,0 -14,-5.54 -14,-13.73 V 25.43 h -7.13 v -7 h 7.13 V 9.06 h 7.4 v 9.33 h 11.7 v 7 h -11.7 v 23.1 c 0.01,3.87 2.28,6.5 6.96,6.5 z"
         fill="#253858"
         id="path1042" />
      <path
         d="M 2,6.26 A 2,2 0 0 0 0,8.58 l 8.5,51.54 a 2.72,2.72 0 0 0 2.66,2.27 H 51.9 a 2,2 0 0 0 2,-1.68 L 62.4,8.6 a 2,2 0 0 0 -2,-2.32 z M 37.75,43.5 h -13 L 21.23,25.1 H 40.9 Z"
         fill="#2684ff"
         id="path1044" />
      <path
         d="M 59.67,25.12 H 40.9 l -3.15,18.4 h -13 L 9.4,61.73 a 2.71,2.71 0 0 0 1.75,0.66 H 51.9 a 2,2 0 0 0 2,-1.68 z"
         fill="url(#A)"
         id="path1046"
         style="fill:url(#A)" />
    </g>
  </g>
</svg>
