<?xml version="1.0" encoding="UTF-8" standalone="no"?>
<svg
   viewBox="0 0 399.33193 300"
   version="1.1"
   id="svg100"
   sodipodi:docname="network.svg"
   width="399.33194"
   height="300"
   inkscape:version="1.1 (c68e22c387, 2021-05-23)"
   xmlns:inkscape="http://www.inkscape.org/namespaces/inkscape"
   xmlns:sodipodi="http://sodipodi.sourceforge.net/DTD/sodipodi-0.dtd"
   xmlns="http://www.w3.org/2000/svg"
   xmlns:svg="http://www.w3.org/2000/svg">
  <defs
     id="defs104" />
  <sodipodi:namedview
     id="namedview102"
     pagecolor="#ffffff"
     bordercolor="#666666"
     borderopacity="1.0"
     inkscape:pageshadow="2"
     inkscape:pageopacity="0.0"
     inkscape:pagecheckerboard="0"
     showgrid="false"
     inkscape:zoom="1.3035162"
     inkscape:cx="90.140802"
     inkscape:cy="120.05988"
     inkscape:window-width="1920"
     inkscape:window-height="1017"
     inkscape:window-x="-8"
     inkscape:window-y="-8"
     inkscape:window-maximized="1"
     inkscape:current-layer="svg100" />
  <path
     d="m 199.76277,82.360851 c 0,16.128884 -13.07498,29.203539 -29.20353,29.203539 -16.12856,0 -29.20354,-13.074986 -29.20354,-29.203539 0,-16.128552 13.07498,-29.203533 29.20354,-29.203533 16.12855,0 29.20353,13.074981 29.20353,29.203533 z"
     fill="#ffffff"
     stroke="#000000"
     stroke-width="1.65201"
     id="path2"
     style="fill:#f03c2e;stroke:none;stroke-opacity:1;fill-opacity:1" />
  <path
     d="m 59.233072,39.449287 c 0,16.128883 -13.074982,29.203534 -29.203534,29.203534 -16.128553,0 -29.20353412,-13.074982 -29.20353412,-29.203534 0,-16.128553 13.07498112,-29.203534 29.20353412,-29.203534 16.128552,0 29.203534,13.074981 29.203534,29.203534 z"
     fill="#ffffff"
     stroke="#000000"
     stroke-width="1.65201"
     id="path12"
     style="fill:#f03c2e;stroke:none;stroke-opacity:1;fill-opacity:1" />
  <path
     d="m 78.97787,243.5119 c 0,16.12889 -13.074982,29.20354 -29.203534,29.20354 -16.128553,0 -29.203534,-13.07498 -29.203534,-29.20354 0,-16.12855 13.074981,-29.20353 29.203534,-29.20353 16.128552,0 29.203534,13.07498 29.203534,29.20353 z"
     fill="#ffffff"
     stroke="#000000"
     stroke-width="1.65201"
     id="path22"
     style="fill:#f03c2e;stroke:none;stroke-opacity:1;fill-opacity:1" />
  <path
     d="m 333.38377,115.11125 c 0,16.12888 -13.07498,29.20353 -29.20353,29.20353 -16.12855,0 -29.20353,-13.07498 -29.20353,-29.20353 0,-16.128556 13.07498,-29.203538 29.20353,-29.203538 16.12855,0 29.20353,13.074982 29.20353,29.203538 z"
     fill="#ffffff"
     stroke="#000000"
     stroke-width="1.65201"
     id="path32"
     style="fill:#f03c2e;stroke:none;stroke-opacity:1;fill-opacity:1" />
  <path
     d="m 232.63773,210.66668 c 0,16.12889 -13.07498,29.20354 -29.20354,29.20354 -16.12855,0 -29.20353,-13.07498 -29.20353,-29.20354 0,-16.12855 13.07498,-29.20353 29.20353,-29.20353 16.12856,0 29.20354,13.07498 29.20354,29.20353 z"
     fill="#ffffff"
     stroke="#ff5500"
     stroke-width="1.65201"
     id="path42"
     style="fill:#f03c2e;stroke:none;stroke-opacity:1;fill-opacity:1" />
  <path
     d="m 371.46256,269.97046 c 0,16.12889 -13.07499,29.20354 -29.20354,29.20354 -16.12855,0 -29.20353,-13.07499 -29.20353,-29.20354 0,-16.12855 13.07498,-29.20353 29.20353,-29.20353 16.12855,0 29.20354,13.07498 29.20354,29.20353 z"
     fill="#ffffff"
     stroke="#000000"
     stroke-width="1.65201"
     id="path54"
     style="fill:#f03c2e;stroke:none;stroke-opacity:1;fill-opacity:1" />
  <path
     d="m 398.50592,30.029538 c 0,16.128883 -13.07498,29.203534 -29.20353,29.203534 -16.12855,0 -29.20353,-13.074981 -29.20353,-29.203534 0,-16.128553 13.07498,-29.20353396 29.20353,-29.20353396 16.12855,0 29.20353,13.07498096 29.20353,29.20353396 z"
     fill="#ffffff"
     stroke="#000000"
     stroke-width="1.65201"
     id="path64"
     style="fill:#f03c2e;stroke:none;stroke-opacity:1;fill-opacity:1" />
  <path
     d="M 61.691259,48.541912 139.69907,71.236865"
     fill="none"
     stroke="#000000"
     stroke-linecap="round"
     stroke-width="1.65201"
     id="path74"
     style="stroke-width:4;stroke-miterlimit:4;stroke-dasharray:none;stroke:#333333;stroke-opacity:1" />
  <path
     d="m 201.82448,92.135095 69.67508,16.250475"
     fill="none"
     stroke="#000000"
     stroke-linecap="round"
     stroke-width="1.65201"
     id="path76"
     style="stroke-width:4;stroke-miterlimit:4;stroke-dasharray:none;stroke:#333333;stroke-opacity:1" />
  <path
     d="m 323.81204,89.214345 25.9765,-33.006456"
     fill="none"
     stroke="#000000"
     stroke-linecap="round"
     stroke-width="1.65201"
     id="path78"
     style="stroke-width:4;stroke-miterlimit:4;stroke-dasharray:none;stroke:#333333;stroke-opacity:1" />
  <path
     d="m 176.29765,114.53632 18.86031,64.31597"
     fill="none"
     stroke="#000000"
     stroke-linecap="round"
     stroke-width="1.65201"
     id="path80"
     style="stroke-width:4;stroke-miterlimit:4;stroke-dasharray:none;stroke:#333333;stroke-opacity:1" />
  <path
     d="m 282.52836,139.79224 -52.98319,51.46335"
     fill="#ff5500"
     stroke="#000000"
     stroke-linecap="round"
     stroke-width="1.65201"
     id="path82"
     style="stroke-width:4;stroke-miterlimit:4;stroke-dasharray:none;stroke:#333333;stroke-opacity:1" />
  <path
     d="M 82.129901,236.92367 171.41101,216.97799"
     fill="none"
     stroke="#000000"
     stroke-linecap="round"
     stroke-width="1.65201"
     id="path84"
     style="stroke-width:4;stroke-miterlimit:4;stroke-dasharray:none;stroke:#333333;stroke-opacity:1" />
  <path
     d="m 230.29848,229.4599 80.19177,32.56471"
     fill="none"
     stroke="#000000"
     stroke-linecap="round"
     stroke-width="1.65201"
     id="path86"
     style="stroke-width:4;stroke-miterlimit:4;stroke-dasharray:none;stroke:#333333;stroke-opacity:1" />
  <path
     d="M 174.73816,195.44506 47.242799,67.543306"
     fill="none"
     stroke="#000000"
     stroke-linecap="round"
     stroke-width="1.65201"
     id="path88"
     style="stroke-width:4;stroke-miterlimit:4;stroke-dasharray:none;stroke:#333333;stroke-opacity:1" />
  <path
     d="M 144.93924,102.08018 64.892851,214.3176"
     fill="none"
     stroke="#000000"
     stroke-linecap="round"
     stroke-width="1.65201"
     id="path90"
     style="stroke-width:4;stroke-miterlimit:4;stroke-dasharray:none;stroke:#333333;stroke-opacity:1" />
  <path
     d="M 200.79362,69.172186 336.65145,34.632005"
     fill="none"
     stroke="#000000"
     stroke-linecap="round"
     stroke-width="1.65201"
     id="path92"
     style="stroke-width:4;stroke-miterlimit:4;stroke-dasharray:none;stroke:#333333;stroke-opacity:1" />
  <path
     d="M 366.03736,63.297646 348.15867,237.70342"
     fill="none"
     stroke="#000000"
     stroke-linecap="round"
     stroke-width="1.65201"
     id="path94"
     style="stroke-width:4;stroke-miterlimit:4;stroke-dasharray:none;stroke:#333333;stroke-opacity:1" />
  <path
     d="M 314.13128,145.92117 330.2965,239.4182"
     fill="none"
     stroke="#000000"
     stroke-linecap="round"
     stroke-width="1.65201"
     id="path96"
     style="stroke-width:4;stroke-miterlimit:4;stroke-dasharray:none;stroke:#333333;stroke-opacity:1" />
  <path
     d="m 217.29287,195.8841 h -27.71735 c -1.53023,0 -2.77174,1.2415 -2.77174,2.77173 v 18.47824 c 0,1.53023 1.24151,2.77173 2.77174,2.77173 h 11.08694 l -0.92391,2.77174 h -4.15761 c -0.768,0 -1.38586,0.61786 -1.38586,1.38587 0,0.768 0.61786,1.38586 1.38586,1.38586 h 15.70651 c 0.76799,0 1.38586,-0.61786 1.38586,-1.38586 0,-0.76801 -0.61787,-1.38587 -1.38586,-1.38587 h -4.15761 l -0.92391,-2.77174 h 11.08694 c 1.53023,0 2.77174,-1.2415 2.77174,-2.77173 v -18.47824 c 0,-1.53023 -1.24151,-2.77173 -2.77174,-2.77173 z m -0.92391,20.32606 h -25.86953 v -16.63042 h 25.86953 z"
     id="path4095"
     style="stroke-width:0.0577446;fill:#ffffff;fill-opacity:1" />
  <path
     d="m 184.41792,67.578262 h -27.71736 c -1.53022,0 -2.77174,1.241504 -2.77174,2.771736 v 18.478236 c 0,1.530232 1.24151,2.771736 2.77174,2.771736 h 11.08695 l -0.92392,2.771735 h -4.1576 c -0.768,0 -1.38587,0.617864 -1.38587,1.38587 0,0.768001 0.61787,1.385866 1.38587,1.385866 h 15.7065 c 0.768,0 1.38587,-0.617865 1.38587,-1.385866 0,-0.768006 -0.61787,-1.38587 -1.38587,-1.38587 h -4.1576 l -0.92391,-2.771735 h 11.08694 c 1.53023,0 2.77173,-1.241504 2.77173,-2.771736 V 70.349998 c 0,-1.530232 -1.2415,-2.771736 -2.77173,-2.771736 z m -0.92391,20.32606 H 157.62447 V 71.27391 h 25.86954 z"
     id="path4095-3"
     style="stroke-width:0.0577446;fill:#ffffff;fill-opacity:1" />
  <path
     d="M 43.888218,24.666698 H 16.170861 c -1.530226,0 -2.771736,1.241503 -2.771736,2.771735 V 45.91667 c 0,1.530231 1.241507,2.771735 2.771736,2.771735 h 11.086945 l -0.923912,2.771735 h -4.157605 c -0.768002,0 -1.385866,0.617865 -1.385866,1.38587 0,0.768002 0.617864,1.385866 1.385866,1.385866 H 37.88279 c 0.767999,0 1.385866,-0.617864 1.385866,-1.385866 0,-0.768005 -0.617867,-1.38587 -1.385866,-1.38587 h -4.157602 l -0.923911,-2.771735 h 11.086941 c 1.530226,0 2.771733,-1.241504 2.771733,-2.771735 V 27.438433 c 0,-1.530232 -1.241507,-2.771735 -2.771733,-2.771735 z m -0.923915,20.32606 H 17.094772 V 28.362345 h 25.869531 z"
     id="path4095-9"
     style="stroke-width:0.0577446;fill:#ffffff;fill-opacity:1" />
  <path
     d="M 63.633013,228.72932 H 35.915655 c -1.530225,0 -2.771735,1.2415 -2.771735,2.77173 v 18.47824 c 0,1.53023 1.241507,2.77173 2.771735,2.77173 H 47.0026 l -0.923912,2.77174 h -4.157604 c -0.768002,0 -1.385867,0.61786 -1.385867,1.38587 0,0.768 0.617865,1.38586 1.385867,1.38586 h 15.706501 c 0.767998,0 1.385866,-0.61786 1.385866,-1.38586 0,-0.76801 -0.617868,-1.38587 -1.385866,-1.38587 h -4.157602 l -0.923912,-2.77174 h 11.086942 c 1.530228,0 2.771735,-1.2415 2.771735,-2.77173 v -18.47824 c 0,-1.53023 -1.241507,-2.77173 -2.771735,-2.77173 z m -0.923912,20.32606 H 36.839567 v -16.63042 h 25.869534 z"
     id="path4095-8"
     style="stroke-width:0.0577446;fill:#ffffff;fill-opacity:1" />
  <path
     d="m 318.0389,100.32866 h -27.71735 c -1.53023,0 -2.77174,1.2415 -2.77174,2.77173 v 18.47824 c 0,1.53023 1.24151,2.77173 2.77174,2.77173 h 11.08698 l -0.92393,2.77174 h -4.15761 c -0.76798,0 -1.38587,0.61786 -1.38587,1.38587 0,0.768 0.61789,1.38587 1.38587,1.38587 h 15.7065 c 0.76798,0 1.38587,-0.61787 1.38587,-1.38587 0,-0.76801 -0.61785,-1.38587 -1.38587,-1.38587 h -4.15758 l -0.92393,-2.77174 h 11.08695 c 1.53023,0 2.77174,-1.2415 2.77174,-2.77173 v -18.47824 c 0,-1.53023 -1.24151,-2.77173 -2.77177,-2.77173 z m -0.9239,20.32606 H 291.24545 V 104.0243 H 317.115 Z"
     id="path4095-80"
     style="stroke-width:0.0577446;fill:#ffffff;fill-opacity:1" />
  <path
     d="m 383.16108,15.246949 h -27.71735 c -1.53022,0 -2.77174,1.241504 -2.77174,2.771735 v 18.478237 c 0,1.530232 1.24152,2.771735 2.77174,2.771735 h 11.08695 l -0.9239,2.771736 h -4.15761 c -0.76801,0 -1.38587,0.617864 -1.38587,1.385869 0,0.768002 0.61786,1.385866 1.38587,1.385866 h 15.7065 c 0.76799,0 1.38587,-0.617864 1.38587,-1.385866 0,-0.768005 -0.61788,-1.385869 -1.38587,-1.385869 h -4.15761 l -0.9239,-2.771736 h 11.08692 c 1.53026,0 2.77174,-1.241503 2.77174,-2.771735 V 18.018684 c 0,-1.530231 -1.24148,-2.771735 -2.77174,-2.771735 z m -0.9239,20.32606 H 356.36766 V 18.942596 h 25.86952 z"
     id="path4095-4"
     style="stroke-width:0.0577446;fill:#ffffff;fill-opacity:1" />
  <path
     d="m 356.11772,255.18787 h -27.71739 c -1.53022,0 -2.77171,1.24151 -2.77171,2.77174 v 18.47823 c 0,1.53024 1.24149,2.77174 2.77171,2.77174 h 11.08695 l -0.9239,2.77174 h -4.15761 c -0.76802,0 -1.38587,0.61786 -1.38587,1.38587 0,0.768 0.61785,1.38586 1.38587,1.38586 h 15.7065 c 0.76799,0 1.38587,-0.61786 1.38587,-1.38586 0,-0.76801 -0.61788,-1.38587 -1.38587,-1.38587 h -4.15761 l -0.9239,-2.77174 h 11.08696 c 1.53022,0 2.7717,-1.2415 2.7717,-2.77174 v -18.47823 c 0,-1.53023 -1.24148,-2.77174 -2.7717,-2.77174 z m -0.92394,20.32606 h -25.86952 v -16.63041 h 25.86952 z"
     id="path4095-31"
     style="stroke-width:0.0577446;fill:#ffffff;fill-opacity:1" />
</svg>
