<?xml version="1.0" encoding="UTF-8" standalone="no"?>
<svg
   viewBox="0 0 399.33193 300"
   version="1.1"
   id="svg100"
   sodipodi:docname="network.svg"
   width="399.33194"
   height="300"
   inkscape:version="1.1 (c68e22c387, 2021-05-23)"
   xmlns:inkscape="http://www.inkscape.org/namespaces/inkscape"
   xmlns:sodipodi="http://sodipodi.sourceforge.net/DTD/sodipodi-0.dtd"
   xmlns="http://www.w3.org/2000/svg"
   xmlns:svg="http://www.w3.org/2000/svg">
  <defs
     id="defs104" />
  <sodipodi:namedview
     id="namedview102"
     pagecolor="#ffffff"
     bordercolor="#666666"
     borderopacity="1.0"
     inkscape:pageshadow="2"
     inkscape:pageopacity="0.0"
     inkscape:pagecheckerboard="0"
     showgrid="false"
     inkscape:zoom="0.92172518"
     inkscape:cx="-66.722708"
     inkscape:cy="3.7972273"
     inkscape:window-width="1920"
     inkscape:window-height="1017"
     inkscape:window-x="-8"
     inkscape:window-y="-8"
     inkscape:window-maximized="1"
     inkscape:current-layer="svg100" />
  <g
     id="g4431"
     transform="matrix(0.33040157,0,0,0.33040157,-44.057067,-23.125493)">
    <path
       d="m 737.95,319.26708 c 0,48.816 -39.573,88.388 -88.388,88.388 -48.815,0 -88.388,-39.573 -88.388,-88.388 0,-48.815 39.573,-88.388 88.388,-88.388 48.815,0 88.388,39.573 88.388,88.388 z"
       fill="#ffffff"
       stroke="#000000"
       stroke-width="5"
       id="path2"
       style="fill:none;stroke:#000000;stroke-opacity:1" />
    <path
       d="m 312.62,189.39008 c 0,48.816 -39.573,88.388 -88.388,88.388 -48.815,0 -88.388,-39.573 -88.388,-88.388 0,-48.815 39.573,-88.388 88.388,-88.388 48.815,0 88.388,39.573 88.388,88.388 z"
       fill="#ffffff"
       stroke="#000000"
       stroke-width="5"
       id="path12"
       style="fill:none;stroke:#000000;stroke-opacity:1" />
    <path
       d="m 372.38,807.01008 c 0,48.816 -39.573,88.388 -88.388,88.388 -48.815,0 -88.388,-39.573 -88.388,-88.388 0,-48.815 39.573,-88.388 88.388,-88.388 48.815,0 88.388,39.573 88.388,88.388 z"
       fill="#ffffff"
       stroke="#000000"
       stroke-width="5"
       id="path22"
       style="fill:none;stroke:#000000;stroke-opacity:1" />
    <path
       d="m 1142.37,418.39008 c 0,48.816 -39.573,88.388 -88.388,88.388 -48.815,0 -88.388,-39.573 -88.388,-88.388 0,-48.815 39.573,-88.388 88.388,-88.388 48.815,0 88.388,39.573 88.388,88.388 z"
       fill="#ffffff"
       stroke="#000000"
       stroke-width="5"
       id="path32"
       style="fill:none;stroke:#000000;stroke-opacity:1" />
    <path
       d="m 837.45,707.60008 c 0,48.816 -39.573,88.388 -88.388,88.388 -48.815,0 -88.388,-39.573 -88.388,-88.388 0,-48.815 39.573,-88.388 88.388,-88.388 48.815,0 88.388,39.573 88.388,88.388 z"
       fill="#ffffff"
       stroke="#ff5500"
       stroke-width="5"
       id="path42"
       style="fill:none;stroke:#000000;stroke-opacity:1" />
    <path
       d="m 1257.62,887.09008 c 0,48.816 -39.573,88.388 -88.388,88.388 -48.815,0 -88.388,-39.573 -88.388,-88.388 0,-48.815 39.573,-88.388 88.388,-88.388 48.815,0 88.388,39.573 88.388,88.388 z"
       fill="#ffffff"
       stroke="#000000"
       stroke-width="5"
       id="path54"
       style="fill:none;stroke:#000000;stroke-opacity:1" />
    <path
       d="m 1339.47,160.88008 c 0,48.816 -39.573,88.388 -88.388,88.388 -48.815,0 -88.388,-39.573 -88.388,-88.388 0,-48.815 39.573,-88.388 88.388,-88.388 48.815,0 88.388,39.573 88.388,88.388 z"
       fill="#ffffff"
       stroke="#000000"
       stroke-width="5"
       id="path64"
       style="fill:none;stroke:#000000;stroke-opacity:1" />
    <path
       d="m 320.06,216.91 236.1,68.689"
       fill="none"
       stroke="#000000"
       stroke-linecap="round"
       stroke-width="5"
       id="path74" />
    <path
       d="m 744.19,348.85 210.88,49.184"
       fill="none"
       stroke="#000000"
       stroke-linecap="round"
       stroke-width="5"
       id="path76" />
    <path
       d="m 1113.4,340.01 78.621,-99.898"
       fill="none"
       stroke="#000000"
       stroke-linecap="round"
       stroke-width="5"
       id="path78" />
    <path
       d="m 666.93,416.65 57.083,194.66"
       fill="none"
       stroke="#000000"
       stroke-linecap="round"
       stroke-width="5"
       id="path80" />
    <path
       d="m 988.45,493.09008 -160.36,155.76"
       fill="#ff5500"
       stroke="#000000"
       stroke-linecap="round"
       stroke-width="5"
       id="path82" />
    <path
       d="M 381.92,787.07 652.14,726.702"
       fill="none"
       stroke="#000000"
       stroke-linecap="round"
       stroke-width="5"
       id="path84" />
    <path
       d="m 830.37,764.48 242.71,98.561"
       fill="none"
       stroke="#000000"
       stroke-linecap="round"
       stroke-width="5"
       id="path86" />
    <path
       d="M 662.21,661.53 276.33,274.42"
       fill="none"
       stroke="#000000"
       stroke-linecap="round"
       stroke-width="5"
       id="path88" />
    <path
       d="M 572.02,378.95 329.75,718.65"
       fill="none"
       stroke="#000000"
       stroke-linecap="round"
       stroke-width="5"
       id="path90" />
    <path
       d="M 741.07,279.35 1152.26,174.81"
       fill="none"
       stroke="#000000"
       stroke-linecap="round"
       stroke-width="5"
       id="path92" />
    <path
       d="m 1241.2,261.57 -54.112,527.86"
       fill="none"
       stroke="#000000"
       stroke-linecap="round"
       stroke-width="5"
       id="path94" />
    <path
       d="m 1084.1,511.64 48.926,282.98"
       fill="none"
       stroke="#000000"
       stroke-linecap="round"
       stroke-width="5"
       id="path96" />
    <path
       d="m 791.00696,662.8588 h -83.88991 c -4.63141,0 -8.38899,3.75756 -8.38899,8.38899 v 55.9266 c 0,4.63143 3.75757,8.38899 8.38899,8.38899 h 33.55597 l -2.79633,8.38899 H 725.2932 c -2.32445,0 -4.19449,1.87004 -4.19449,4.1945 0,2.32445 1.87004,4.19449 4.19449,4.19449 h 47.53761 c 2.32444,0 4.19449,-1.87004 4.19449,-4.19449 0,-2.32446 -1.87005,-4.1945 -4.19449,-4.1945 h -12.58348 l -2.79633,-8.38899 h 33.55596 c 4.63142,0 8.38899,-3.75756 8.38899,-8.38899 v -55.9266 c 0,-4.63143 -3.75757,-8.38899 -8.38899,-8.38899 z m -2.79633,61.51926 h -78.29725 v -50.33394 h 78.29725 z"
       id="path4095"
       style="stroke-width:0.174771" />
    <path
       d="m 691.50696,274.5258 h -83.88991 c -4.63141,0 -8.38899,3.75756 -8.38899,8.38899 v 55.9266 c 0,4.63143 3.75757,8.38899 8.38899,8.38899 h 33.55597 l -2.79633,8.38899 H 625.7932 c -2.32445,0 -4.19449,1.87004 -4.19449,4.1945 0,2.32445 1.87004,4.19449 4.19449,4.19449 h 47.53761 c 2.32444,0 4.19449,-1.87004 4.19449,-4.19449 0,-2.32446 -1.87005,-4.1945 -4.19449,-4.1945 h -12.58348 l -2.79633,-8.38899 h 33.55596 c 4.63142,0 8.38899,-3.75756 8.38899,-8.38899 v -55.9266 c 0,-4.63143 -3.75757,-8.38899 -8.38899,-8.38899 z m -2.79633,61.51926 h -78.29725 v -50.33394 h 78.29725 z"
       id="path4095-3"
       style="stroke-width:0.174771" />
    <path
       d="m 266.17696,144.6488 h -83.88991 c -4.63141,0 -8.38899,3.75756 -8.38899,8.38899 v 55.9266 c 0,4.63143 3.75757,8.38899 8.38899,8.38899 h 33.55597 l -2.79633,8.38899 H 200.4632 c -2.32445,0 -4.19449,1.87004 -4.19449,4.1945 0,2.32445 1.87004,4.19449 4.19449,4.19449 h 47.53761 c 2.32444,0 4.19449,-1.87004 4.19449,-4.19449 0,-2.32446 -1.87005,-4.1945 -4.19449,-4.1945 h -12.58348 l -2.79633,-8.38899 h 33.55596 c 4.63141,0 8.38898,-3.75756 8.38898,-8.38899 v -55.9266 c 0,-4.63143 -3.75757,-8.38899 -8.38898,-8.38899 z m -2.79634,61.51926 h -78.29724 v -50.33394 h 78.29724 z"
       id="path4095-9"
       style="stroke-width:0.174771" />
    <path
       d="m 325.93695,762.2688 h -83.88991 c -4.63141,0 -8.38899,3.75756 -8.38899,8.38899 v 55.9266 c 0,4.63143 3.75757,8.38899 8.38899,8.38899 h 33.55597 l -2.79633,8.38899 h -12.58349 c -2.32445,0 -4.19449,1.87004 -4.19449,4.1945 0,2.32445 1.87004,4.19449 4.19449,4.19449 h 47.53761 c 2.32444,0 4.19449,-1.87004 4.19449,-4.19449 0,-2.32446 -1.87005,-4.1945 -4.19449,-4.1945 h -12.58348 l -2.79633,-8.38899 h 33.55596 c 4.63142,0 8.38899,-3.75756 8.38899,-8.38899 v -55.9266 c 0,-4.63143 -3.75757,-8.38899 -8.38899,-8.38899 z m -2.79633,61.51926 h -78.29725 v -50.33394 h 78.29725 z"
       id="path4095-8"
       style="stroke-width:0.174771" />
    <path
       d="m 1095.9269,373.6488 h -83.8899 c -4.6314,0 -8.389,3.75756 -8.389,8.38899 v 55.9266 c 0,4.63143 3.7576,8.38899 8.389,8.38899 h 33.5561 l -2.7964,8.38899 h -12.5835 c -2.3244,0 -4.1945,1.87004 -4.1945,4.1945 0,2.32445 1.8701,4.19449 4.1945,4.19449 h 47.5376 c 2.3244,0 4.1945,-1.87004 4.1945,-4.19449 0,-2.32446 -1.87,-4.1945 -4.1945,-4.1945 h -12.5834 l -2.7964,-8.38899 h 33.556 c 4.6314,0 8.389,-3.75756 8.389,-8.38899 v -55.9266 c 0,-4.63143 -3.7576,-8.38899 -8.3891,-8.38899 z m -2.7963,61.51926 h -78.2973 v -50.33394 h 78.2973 z"
       id="path4095-80"
       style="stroke-width:0.174771" />
    <path
       d="m 1293.027,116.1388 h -83.8899 c -4.6314,0 -8.389,3.75756 -8.389,8.38899 v 55.9266 c 0,4.63143 3.7576,8.38899 8.389,8.38899 h 33.556 l -2.7963,8.38899 h -12.5835 c -2.3245,0 -4.1945,1.87004 -4.1945,4.1945 0,2.32445 1.87,4.19449 4.1945,4.19449 h 47.5376 c 2.3244,0 4.1945,-1.87004 4.1945,-4.19449 0,-2.32446 -1.8701,-4.1945 -4.1945,-4.1945 h -12.5835 l -2.7963,-8.38899 h 33.5559 c 4.6315,0 8.389,-3.75756 8.389,-8.38899 v -55.9266 c 0,-4.63143 -3.7575,-8.38899 -8.389,-8.38899 z m -2.7963,61.51926 h -78.2972 v -50.33394 h 78.2972 z"
       id="path4095-4"
       style="stroke-width:0.174771" />
    <path
       d="m 1211.177,842.3488 h -83.89 c -4.6314,0 -8.3889,3.75756 -8.3889,8.38899 v 55.9266 c 0,4.63143 3.7575,8.38899 8.3889,8.38899 h 33.556 l -2.7963,8.38899 h -12.5835 c -2.3245,0 -4.1945,1.87004 -4.1945,4.1945 0,2.32445 1.87,4.19449 4.1945,4.19449 h 47.5376 c 2.3244,0 4.1945,-1.87004 4.1945,-4.19449 0,-2.32446 -1.8701,-4.1945 -4.1945,-4.1945 h -12.5835 l -2.7963,-8.38899 h 33.556 c 4.6314,0 8.3889,-3.75756 8.3889,-8.38899 v -55.9266 c 0,-4.63143 -3.7575,-8.38899 -8.3889,-8.38899 z m -2.7964,61.51926 h -78.2972 v -50.33394 h 78.2972 z"
       id="path4095-31"
       style="stroke-width:0.174771" />
  </g>
</svg>
