<?xml version="1.0" encoding="UTF-8" standalone="no"?>
<!-- Created with Inkscape (http://www.inkscape.org/) -->

<svg
   width="533.2876"
   height="286.65179"
   viewBox="0 0 533.2876 286.65179"
   version="1.1"
   id="SVGRoot"
   sodipodi:docname="torvalds.svg"
   inkscape:version="1.1 (c68e22c387, 2021-05-23)"
   xmlns:inkscape="http://www.inkscape.org/namespaces/inkscape"
   xmlns:sodipodi="http://sodipodi.sourceforge.net/DTD/sodipodi-0.dtd"
   xmlns:xlink="http://www.w3.org/1999/xlink"
   xmlns="http://www.w3.org/2000/svg"
   xmlns:svg="http://www.w3.org/2000/svg">
  <sodipodi:namedview
     id="namedview4528"
     pagecolor="#ffffff"
     bordercolor="#666666"
     borderopacity="1.0"
     inkscape:pageshadow="2"
     inkscape:pageopacity="0.0"
     inkscape:pagecheckerboard="0"
     inkscape:document-units="px"
     showgrid="false"
     inkscape:zoom="1.0809568"
     inkscape:cx="167.9068"
     inkscape:cy="115.17574"
     inkscape:window-width="1920"
     inkscape:window-height="1017"
     inkscape:window-x="-8"
     inkscape:window-y="-8"
     inkscape:window-maximized="1"
     inkscape:current-layer="layer1" />
  <defs
     id="defs4523">
    <rect
       id="XMLID_4_"
       x="0.044"
       width="484"
       height="809"
       y="0" />
    <defs
       id="defs4644">
      <rect
         id="rect4699"
         x="0.044"
         width="484"
         height="809"
         y="0" />
    </defs>
    <clipPath
       id="XMLID_6_">
      <use
         xlink:href="#XMLID_4_"
         id="use4646"
         x="0"
         y="0"
         width="100%"
         height="100%" />
    </clipPath>
  </defs>
  <g
     inkscape:label="Camada 1"
     inkscape:groupmode="layer"
     id="layer1"
     transform="translate(-6.4757422,-16.889375)">
    <path
       d="m 386.92053,111.21824 h -40.98238 c -20.67469,-5.42194 -67.44601,-4.01089 -67.44601,38.6565 0,15.55252 7.75302,26.47911 18.09035,31.52891 -12.97335,11.88794 -19.12409,17.49594 -19.12409,25.43501 0,5.68555 2.3104,10.92657 9.24677,13.85721 -7.37569,6.9312 -11.57783,11.96549 -11.57783,21.42415 0,16.59661 14.49812,26.26719 52.52922,26.26719 36.56835,0 57.78059,-13.65564 57.78059,-37.82434 0,-30.31942 -23.34174,-29.203 -78.37261,-32.56264 l 6.94155,-11.13848 c 14.09496,3.91785 61.35213,5.16868 61.35213,-35.0901 0,-9.66543 -3.99537,-16.38985 -7.753,-21.22776 l 19.336,-1.4679 z m -32.7797,125.03017 c 0,16.57077 -54.21419,16.59145 -54.21419,1.25597 0,-4.20728 2.72386,-7.75298 5.46327,-11.13328 40.16576,2.73937 48.75092,1.74183 48.75092,9.87731 z m -26.26202,-69.55998 c -27.29058,0 -26.08112,-36.78027 0.62024,-36.78027 25.60561,0 26.26718,36.78027 -0.62024,36.78027 z m 68.89838,51.95031 v -16.59142 c 13.8262,-1.89173 14.07948,-1.03373 14.07948,-5.68555 v -61.77079 c 0,-4.39339 -1.0596,-3.8145 -14.07948,-8.40425 l 2.3104,-17.01528 h 43.5047 v 87.20066 c 0,3.36481 0.20681,3.78348 3.36481,4.2073 l 10.71466,1.46791 v 16.59142 z M 423.88686,92.36293 c -11.97578,0 -18.91215,-6.941523 -18.91215,-18.922526 0,-11.980955 6.93637,-18.488327 18.91215,-18.488327 12.18775,0 19.12409,6.522853 19.12409,18.488327 0,11.965498 -6.93634,18.922526 -19.12409,18.922526 z m 115.87648,118.12999 c -9.04002,4.40887 -22.27697,8.40426 -34.25796,8.40426 -25.00605,0 -34.45955,-10.07892 -34.45955,-33.83412 v -55.05153 c 0,-2.80142 0.54272,-2.09849 -16.38984,-2.09849 v -18.70542 c 18.4935,-2.10364 25.84334,-11.371071 28.15374,-34.252787 h 19.96659 c 0,34.025377 -0.69262,31.947587 1.68498,31.947587 h 29.61648 v 21.01062 h -31.30146 v 50.21367 c 0,3.57672 -2.54298,26.57214 31.30664,13.8727 z"
       id="path4625"
       style="fill:#f03c2e;fill-opacity:1;stroke-width:0.516867" />
    <path
       d="m 122.98901,85.915365 c 0.55982,0.27991 1.00767,0.95169 1.67946,0.95169 0.6158,0 1.56749,-0.22391 1.62348,-0.83972 0.11196,-0.78374 -1.06366,-1.28758 -1.79143,-1.62348 -0.95169,-0.39188 -2.1833,-0.55982 -3.07901,-0.056 -0.22393,0.11191 -0.44786,0.39188 -0.33589,0.61581 0.16794,0.72775 1.28758,0.61579 1.90339,0.95169 z m -12.26007,0.95169 c 0.67178,0 1.11964,-0.67178 1.67946,-0.95169 0.6158,-0.3359 1.73544,-0.22393 1.95937,-0.89571 0.11197,-0.22393 -0.11196,-0.50384 -0.33589,-0.6158 -0.89571,-0.50384 -2.12732,-0.33588 -3.07901,0.0559 -0.72777,0.33588 -1.90339,0.83972 -1.79143,1.62346 0.056,0.55984 1.00768,0.83974 1.5675,0.78375 z M 234.50521,242.94498 c -2.01534,-2.23927 -2.96705,-6.49392 -4.0307,-11.02846 -1.00768,-4.53454 -2.1833,-9.40497 -5.87812,-12.53998 -0.72777,-0.61581 -1.45552,-1.17562 -2.23927,-1.62347 -0.72777,-0.44786 -1.51152,-0.83974 -2.29527,-1.11964 5.15035,-15.2831 3.13499,-30.51022 -2.07132,-44.28179 -6.38196,-16.85061 -17.52238,-31.57387 -26.03165,-41.65065 -9.57293,-12.03614 -18.86595,-23.45647 -18.698,-40.307055 0.27991,-25.69575 2.85508,-73.448425 -42.43439,-73.504398 -57.325609,-0.111903 -42.994199,57.885408 -43.610009,75.687698 -0.95169,13.099785 -3.58285,23.400475 -12.59596,36.220365 -10.5806,12.59596 -25.47183,32.91745 -32.52556,54.13463 -3.35892,10.02079 -4.92642,20.20953 -3.47089,29.83844 -3.63883,3.24695 -6.38195,8.22936 -9.29302,11.30837 -2.35125,2.40723 -5.76615,3.30294 -9.51694,4.6465 -3.7508,1.34358 -7.83749,3.35892 -10.3566798,8.11739 -1.17563,2.1833 -1.5675,4.53456 -1.5675,6.9418 0,2.18329 0.33589,4.42257 0.67178,6.60587 0.67179,4.53453 1.39955,8.78919 0.44786,11.64426 -2.91107,8.06142 -3.30294,13.65963 -1.23161,17.7463 2.12732,4.0867 6.3819598,5.87812 11.2523898,6.8858 9.6849,2.01536 22.84068,1.51152 33.19736,6.99777 11.08444,5.82212 22.33683,7.89345 31.29396,5.82212 6.49392,-1.45553 11.81221,-5.37428 14.49935,-11.30837 6.997749,-0.0559 14.723269,-3.02304 27.039319,-3.69482 8.34133,-0.67178 18.80997,2.96705 30.84611,2.29527 0.33589,1.28758 0.78375,2.57517 1.39955,3.75079 v 0.0559 c 4.64651,9.34901 13.32372,13.60364 22.56076,12.87588 9.29302,-0.72777 19.08987,-6.15804 27.03932,-15.61899 7.61355,-9.18106 20.15352,-12.98785 28.49484,-18.02623 4.14269,-2.5192 7.50161,-5.6542 7.78151,-10.24471 0.22394,-4.59054 -2.4632,-9.68489 -8.67722,-16.62668 z M 124.61249,65.761835 c 5.48623,-12.42801 19.14585,-12.20408 24.63209,-0.22393 3.63884,7.94945 2.01536,17.29845 -2.40722,22.61674 -0.89572,-0.44785 -3.30294,-1.45553 -7.05374,-2.74312 0.6158,-0.67177 1.73544,-1.51151 2.1833,-2.57517 2.68714,-6.60587 -0.11197,-15.11515 -5.09437,-15.28309 -4.08668,-0.27991 -7.7815,6.04606 -6.60588,12.87586 -2.29526,-1.11963 -5.26231,-1.95937 -7.27766,-2.46321 -0.55982,-3.86275 -0.16794,-8.17338 1.62348,-12.20408 z m -22.78469,-6.43793 c 5.65418,0 11.64426,7.94945 10.69256,18.75398 -1.95937,0.55981 -3.97472,1.39955 -5.71016,2.57517 0.67178,-4.9824 -1.84741,-11.25239 -5.37428,-10.97249 -4.702489,0.3919 -5.486239,11.86821 -1.00767,15.73096 0.55981,0.44787 1.06365,-0.1119 -3.302949,3.07902 -8.73319,-8.17339 -5.87811,-29.16664 4.702499,-29.16664 z m -7.613559,33.9811 c 3.47089,-2.57517 7.613559,-5.59821 7.893459,-5.87812 2.63116,-2.4632 7.55758,-7.94945 15.61899,-7.94945 3.97473,0 8.7332,1.28759 14.49935,4.98241 3.52687,2.29527 6.32597,2.4632 12.65195,5.20632 4.70249,1.95938 7.66953,5.43027 5.87811,10.18874 -1.45553,3.974725 -6.15802,8.061415 -12.70792,10.132745 -6.21401,2.01534 -11.08445,8.95711 -21.38514,8.34132 -2.1833,-0.1119 -3.91875,-0.55983 -5.37428,-1.17562 -4.47856,-1.95938 -6.82981,-5.82214 -11.19641,-8.39731 -4.814449,-2.68714 -7.389629,-5.82213 -8.229359,-8.56526 -0.78375,-2.743105 0,-5.038375 2.35125,-6.885775 z m 1.8474,186.979995 c -1.51151,19.6497 -24.57611,19.25782 -42.15447,10.07678 -16.73863,-8.84516 -38.40368,-3.63885 -42.82626,-12.26008 -1.3435698,-2.63114 -1.3435698,-7.10971 1.45553,-14.77925 v -0.1119 c 1.34357,-4.25463 0.33589,-8.95713 -0.33589,-13.3797 -0.67179,-4.3666 -1.00768,-8.39732 0.50383,-11.19643 1.95938,-3.75079 4.75848,-5.09435 8.28535,-6.32596 5.76615,-2.07133 6.60588,-1.90339 10.97248,-5.54222 3.07901,-3.19098 5.31829,-7.22168 8.00543,-10.07678 2.85508,-3.07901 5.5982,-4.53453 9.90882,-3.86275 4.53454,0.67178 8.45329,3.80678 12.26007,8.95713 l 10.97248,19.9296 c 5.31829,11.14042 24.12826,27.09532 22.95263,38.57163 z m -0.78374,-14.49934 c -2.29527,-3.69482 -5.37428,-7.61355 -8.06142,-10.97247 3.97473,0 7.94945,-1.23162 9.349,-4.98241 1.28759,-3.47088 0,-8.34132 -4.14267,-13.93953 -7.55757,-10.18872 -21.44112,-18.19417 -21.44112,-18.19417 -7.55758,-4.70248 -11.81221,-10.46863 -13.77158,-16.73862 -1.95937,-6.26999 -1.67946,-13.04382 -0.16794,-19.70569 2.91106,-12.81988 10.41266,-25.30387 15.22711,-33.14136 1.28759,-0.9517 0.44786,1.79143 -4.87043,11.64427 -4.75848,9.01311 -13.65962,29.83842 -1.45554,46.12919 0.3359,-11.58827 3.07901,-23.40048 7.72552,-34.42894 6.71785,-15.33909 20.88131,-41.93056 22.00095,-63.09177 0.6158,0.44785 2.57517,1.79143 3.47088,2.29527 2.575179,1.51152 4.534549,3.75079 7.053739,5.76615 6.94177,5.59819 15.95488,5.15034 23.73639,0.67178 3.47088,-1.95937 6.26999,-4.19866 8.90114,-5.03838 5.54222,-1.73545 9.9648,-4.81446 12.484,-8.39732 4.31061,17.01855 14.38738,41.59468 20.82532,53.57482 3.4149,6.38196 10.24471,19.87363 13.21176,36.1644 1.8474,-0.056 3.91874,0.22394 6.10203,0.78375 7.72552,-19.98559 -6.54989,-41.53868 -13.04381,-47.52876 -2.63115,-2.57517 -2.74312,-3.6948 -1.45553,-3.63883 7.05374,6.26999 16.34676,18.86595 19.70568,33.02942 1.56749,6.4939 1.8474,13.26773 0.22391,19.98557 9.18107,3.80678 20.09756,10.02078 17.18649,19.48175 -1.23159,-0.0559 -1.79143,0 -2.35124,0 1.79143,-5.65418 -2.1833,-9.85284 -12.76389,-14.61131 -10.97249,-4.81445 -20.15354,-4.81445 -21.44113,6.99776 -6.77382,2.35124 -10.24471,8.22936 -11.98015,15.2831 -1.5675,6.26999 -2.01536,13.82756 -2.46321,22.33683 -0.27992,4.31062 -2.01536,10.07677 -3.80678,16.2348 -17.97024,12.81989 -42.93823,18.41808 -63.987479,4.0307 z m 144.097749,-6.43793 c -0.50384,9.40497 -23.0646,11.14042 -35.38065,26.03165 -7.38961,8.78919 -16.4587,13.65962 -24.40815,14.27541 -7.94945,0.61581 -14.83524,-2.68714 -18.86595,-10.80453 -2.63115,-6.214 -1.34357,-12.93185 0.61581,-20.32149 2.07133,-7.94945 5.15034,-16.12282 5.54222,-22.72871 0.44785,-8.50926 0.95169,-15.95487 2.35124,-21.66505 1.45554,-5.76615 3.69482,-9.62891 7.66954,-11.81221 0.16794,-0.1119 0.39188,-0.16785 0.55982,-0.2799 0.44786,7.38963 4.08669,14.89122 10.52463,16.5147 7.05373,1.8474 17.18648,-4.19865 21.49709,-9.12507 5.03838,-0.16806 8.78919,-0.50384 12.65194,2.85508 5.54221,4.75847 3.97472,16.96256 9.57291,23.28854 5.93411,6.4939 7.83751,10.9165 7.66955,13.77158 z M 96.397541,100.13481 c 1.11964,1.06365 2.63115,2.51917 4.478559,3.97472 3.69481,2.91107 8.84516,5.93409 15.2831,5.93409 6.49391,0 12.59596,-3.30294 17.80229,-6.04606 2.74312,-1.45552 6.10204,-3.91875 8.28534,-5.822115 2.1833,-1.90339 3.30294,-3.52688 1.73544,-3.69482 -1.56749,-0.16806 -1.45553,1.45553 -3.35892,2.85508 -2.46321,1.79143 -5.43026,4.142665 -7.7815,5.486245 -4.14268,2.35123 -10.9165,5.71015 -16.73864,5.71015 -5.82213,0 -10.46864,-2.68714 -13.93952,-5.43025 -1.73544,-1.39955 -3.190979,-2.7991 -4.310619,-3.862755 -0.83973,-0.78374 -1.06366,-2.57517 -2.40723,-2.74313 -0.78375,-0.0559 -1.00767,2.07135 0.9517,3.638845 z"
       id="path4634"
       style="stroke-width:0.559821" />
  </g>
</svg>
