<?xml version="1.0" encoding="UTF-8" standalone="no"?>
<!-- Created with Inkscape (http://www.inkscape.org/) -->

<svg
   width="400px"
   height="300px"
   viewBox="0 0 400 300"
   version="1.1"
   id="SVGRoot"
   sodipodi:docname="torvalds.svg"
   inkscape:version="1.1 (c68e22c387, 2021-05-23)"
   xmlns:inkscape="http://www.inkscape.org/namespaces/inkscape"
   xmlns:sodipodi="http://sodipodi.sourceforge.net/DTD/sodipodi-0.dtd"
   xmlns:xlink="http://www.w3.org/1999/xlink"
   xmlns="http://www.w3.org/2000/svg"
   xmlns:svg="http://www.w3.org/2000/svg">
  <sodipodi:namedview
     id="namedview4528"
     pagecolor="#ffffff"
     bordercolor="#666666"
     borderopacity="1.0"
     inkscape:pageshadow="2"
     inkscape:pageopacity="0.0"
     inkscape:pagecheckerboard="0"
     inkscape:document-units="px"
     showgrid="false"
     inkscape:zoom="1.0809568"
     inkscape:cx="174.38255"
     inkscape:cy="131.82766"
     inkscape:window-width="1920"
     inkscape:window-height="1017"
     inkscape:window-x="-8"
     inkscape:window-y="-8"
     inkscape:window-maximized="1"
     inkscape:current-layer="layer1" />
  <defs
     id="defs4523"><rect
   id="XMLID_4_"
   x="0.044"
   width="484"
   height="809" />

	<defs
   id="defs4644">
		<rect
   id="rect4699"
   x="0.044"
   width="484"
   height="809"
   y="0" />

	</defs>

	<clipPath
   id="XMLID_6_">
		<use
   xlink:href="#XMLID_4_"
   id="use4646"
   x="0"
   y="0"
   width="100%"
   height="100%" />

	</clipPath>

	

		
		
		
		
		
		
		
		
		
		
		
		
		
		
		
		
		
		
		
		
	</defs>
  <g
     inkscape:label="Camada 1"
     inkscape:groupmode="layer"
     id="layer1">
    <path
       d="m 338.51095,236.77052 h -16.48732 c -8.31748,-2.18126 -27.1337,-1.61359 -27.1337,15.55161 0,6.25682 3.11906,10.65261 7.27779,12.68416 -5.21921,4.78255 -7.69367,7.03866 -7.69367,10.23257 0,2.28731 0.92948,4.39579 3.72,5.57479 -2.96726,2.78844 -4.65779,4.81375 -4.65779,8.61899 0,6.67686 5.83263,10.56736 21.13264,10.56736 14.71154,0 23.24528,-5.4937 23.24528,-15.21683 0,-12.19758 -9.39044,-11.74844 -31.5295,-13.10003 l 2.7926,-4.48104 c 5.67044,1.57616 24.68212,2.07937 24.68212,-14.11684 0,-3.88843 -1.60735,-6.59368 -3.11905,-8.53998 l 7.77892,-0.59054 z m -13.18736,50.29996 c 0,6.66646 -21.81051,6.67478 -21.81051,0.50528 0,-1.6926 1.09582,-3.11905 2.19789,-4.47895 16.15879,1.10206 19.61262,0.70074 19.61262,3.97367 z m -10.56528,-27.98416 c -10.97907,0 -10.4925,-14.7968 0.24953,-14.7968 10.3012,0 10.56735,14.7968 -0.24953,14.7968 z m 27.718,20.89974 v -6.67477 c 5.56231,-0.76105 5.66421,-0.41587 5.66421,-2.28731 v -24.85055 c 0,-1.76747 -0.42628,-1.53458 -5.66421,-3.38105 l 0.92948,-6.84529 h 17.50205 v 35.08105 c 0,1.35367 0.0832,1.5221 1.35367,1.69261 l 4.31054,0.59054 v 6.67477 z m 10.90629,-50.80108 c -4.81789,0 -7.60841,-2.79259 -7.60841,-7.61258 0,-4.81997 2.79052,-7.4379 7.60841,-7.4379 4.90316,0 7.69367,2.62416 7.69367,7.4379 0,4.81375 -2.79051,7.61258 -7.69367,7.61258 z M 400,276.70898 c -3.63682,1.7737 -8.96208,3.38105 -13.78206,3.38105 -10.06,0 -13.86317,-4.05477 -13.86317,-13.61155 v -22.14737 c 0,-1.12702 0.21834,-0.84423 -6.59367,-0.84423 v -7.52524 c 7.43998,-0.8463 10.39684,-4.57461 11.32632,-13.77998 h 8.03261 c 0,13.68849 -0.27864,12.85259 0.67787,12.85259 h 11.91479 v 8.45263 h -12.59266 v 20.20109 c 0,1.43892 -1.02305,10.69004 12.59474,5.58102 z"
       id="path4625"
       style="stroke-width:0.207937" />
    <path
       d="m 54.975198,197.31619 c 0.264144,0.13207 0.475459,0.44904 0.792431,0.44904 0.290558,0 0.739602,-0.10565 0.766017,-0.39621 0.05283,-0.3698 -0.501873,-0.60753 -0.84526,-0.76602 -0.449044,-0.1849 -1.03016,-0.26414 -1.45279,-0.0264 -0.105657,0.0528 -0.211315,0.1849 -0.158486,0.29056 0.07924,0.34338 0.60753,0.29055 0.898088,0.44904 z m -5.784745,0.44904 c 0.316972,0 0.528287,-0.31697 0.79243,-0.44904 0.290558,-0.15849 0.818846,-0.10566 0.924503,-0.42263 0.05283,-0.10566 -0.05283,-0.23773 -0.158486,-0.29056 -0.42263,-0.23773 -1.003746,-0.15848 -1.45279,0.0264 -0.343387,0.15848 -0.898088,0.39621 -0.84526,0.76601 0.02642,0.26415 0.475459,0.39622 0.739603,0.3698 z m 58.402147,73.64325 c -0.95091,-1.05657 -1.39996,-3.06407 -1.90183,-5.20363 -0.47546,-2.13956 -1.03016,-4.43761 -2.77351,-5.91682 -0.34339,-0.29056 -0.68677,-0.5547 -1.05657,-0.76601 -0.34339,-0.21132 -0.71319,-0.39622 -1.08299,-0.52829 2.43012,-7.21112 1.4792,-14.39583 -0.977325,-20.89376 -3.01124,-7.95073 -8.2677,-14.8977 -12.28268,-19.65229 -4.516857,-5.67909 -8.901641,-11.06762 -8.822398,-19.01834 0.132072,-12.12419 1.347133,-34.65564 -20.022088,-34.68205 -27.04831,-0.0528 -20.286231,27.31244 -20.576789,35.71221 -0.449044,6.18096 -1.69052,11.0412 -5.943233,17.09009 -4.992315,5.94323 -12.018536,15.53165 -15.346746,25.54269 -1.584861,4.72817 -2.324464,9.53559 -1.63769,14.07886 -1.716934,1.53203 -3.011238,3.88291 -4.384785,5.3357 -1.1094034,1.13582 -2.7206794,1.55845 -4.4904414,2.19239 -1.769763,0.63395 -3.698011,1.58486 -4.886658,3.83008 -0.554701,1.03016 -0.739602,2.13957 -0.739602,3.27539 0,1.03016 0.158486,2.08673 0.316972,3.11689 0.316973,2.13956 0.660359,4.14706 0.211315,5.49419 -1.373547,3.80367 -1.558447,6.44511 -0.581116,8.37335 1.003746,1.92825 3.011238,2.77351 5.309287,3.24897 4.5696854,0.95092 10.7770614,0.71319 15.6637184,3.3018 5.230044,2.74709 10.539331,3.72442 14.765631,2.74709 3.064066,-0.68677 5.57343,-2.53578 6.84132,-5.3357 3.301795,-0.0264 6.946978,-1.42638 12.758138,-1.74335 3.93574,-0.31697 8.875226,1.39996 14.554314,1.08299 0.158486,0.60753 0.369801,1.21506 0.660359,1.76976 v 0.0264 c 2.192393,4.4112 6.286619,6.41869 10.644989,6.07531 4.384783,-0.34339 9.007293,-2.90559 12.758133,-7.36961 3.59235,-4.33196 9.509165,-6.12814 13.444905,-8.50543 1.95467,-1.18865 3.53953,-2.66786 3.6716,-4.83383 0.10566,-2.16598 -1.16223,-4.56968 -4.09423,-7.84507 z M 55.741215,187.80702 c 2.588607,-5.86399 9.033712,-5.75833 11.62232,-0.10566 1.716934,3.75084 0.950917,8.16204 -1.135818,10.6714 -0.42263,-0.21131 -1.558447,-0.68677 -3.32821,-1.2943 0.290558,-0.31697 0.818846,-0.71319 1.030161,-1.21506 1.267889,-3.11689 -0.05283,-7.13188 -2.403708,-7.21112 -1.928248,-0.13207 -3.671596,2.85275 -3.116895,6.0753 -1.082988,-0.52828 -2.48295,-0.9245 -3.433867,-1.16223 -0.264143,-1.82259 -0.07924,-3.8565 0.766017,-5.75833 z m -10.750646,-3.03765 c 2.66785,0 5.494187,3.75084 5.045143,8.84881 -0.924503,0.26414 -1.87542,0.66036 -2.694265,1.21506 0.316972,-2.35088 -0.871674,-5.30929 -2.535779,-5.17722 -2.218806,0.18491 -2.588608,5.59985 -0.475458,7.42244 0.264143,0.21132 0.501872,-0.0528 -1.558448,1.45279 -4.120641,-3.8565 -2.773508,-13.76188 2.218807,-13.76188 z m -3.592354,16.03352 c 1.637691,-1.21506 3.592354,-2.64144 3.724425,-2.77351 1.241476,-1.16223 3.56594,-3.75084 7.369608,-3.75084 1.87542,0 4.120641,0.60753 6.84132,2.35088 1.664105,1.08299 2.984823,1.16223 5.969647,2.45653 2.218806,0.92451 3.618767,2.5622 2.773508,4.80742 -0.686774,1.87542 -2.90558,3.80367 -5.996061,4.781 -2.931994,0.95091 -5.230044,4.22629 -10.090287,3.93574 -1.03016,-0.0528 -1.849005,-0.26415 -2.535779,-0.5547 -2.113149,-0.92451 -3.222552,-2.7471 -5.282873,-3.96216 -2.271635,-1.26789 -3.486696,-2.74709 -3.882911,-4.0414 -0.369801,-1.2943 0,-2.37729 1.109403,-3.24896 z m 0.871674,88.22397 c -0.713188,9.27144 -11.595907,9.08654 -19.890017,4.75459 -7.897895,-4.17347 -18.1202534,-1.71694 -20.2069884,-5.78475 -0.633945,-1.24147 -0.633945,-3.35462 0.686773,-6.97339 v -0.0528 c 0.633945,-2.00749 0.158486,-4.2263 -0.158486,-6.31303 -0.316972,-2.06032 -0.475459,-3.96216 0.237729,-5.28288 0.924503,-1.76976 2.245221,-2.4037 3.909326,-2.98482 2.72068,-0.97733 3.116895,-0.89809 5.1772154,-2.61502 1.452791,-1.50562 2.509365,-3.40745 3.777255,-4.75459 1.347132,-1.45279 2.641436,-2.13956 4.675342,-1.82259 2.139563,0.31697 3.988569,1.79618 5.784746,4.2263 l 5.177215,9.40351 c 2.509366,5.25646 11.384592,12.78456 10.82989,18.1995 z m -0.369801,-6.84132 c -1.082989,-1.74335 -2.535779,-3.59235 -3.803668,-5.17721 1.87542,0 3.750839,-0.58112 4.411198,-2.35088 0.607531,-1.63769 0,-3.93574 -1.954662,-6.57718 -3.56594,-4.80741 -10.116703,-8.58467 -10.116703,-8.58467 -3.565939,-2.2188 -5.573431,-4.93948 -6.497933,-7.89789 -0.924503,-2.95841 -0.792431,-6.15455 -0.07924,-9.29786 1.373546,-6.04889 4.913071,-11.93929 7.184706,-15.6373 0.607531,-0.44905 0.211315,0.84526 -2.298049,5.49419 -2.245221,4.25271 -6.445105,14.07885 -0.686774,21.76543 0.158487,-5.46777 1.45279,-11.0412 3.645183,-16.24483 3.169724,-7.23754 9.852558,-19.78436 10.380846,-29.76899 0.290558,0.21131 1.21506,0.84526 1.63769,1.08299 1.215061,0.71319 2.139564,1.76976 3.32821,2.72068 3.275381,2.64143 7.528094,2.43012 11.19969,0.31697 1.637691,-0.9245 2.958409,-1.98108 4.199884,-2.37729 2.615022,-0.81885 4.701757,-2.27164 5.890403,-3.96216 2.033906,8.02997 6.788492,19.62588 9.826144,25.27855 1.611276,3.01124 4.833828,9.3771 6.23379,17.06368 0.871674,-0.0264 1.849004,0.10566 2.879162,0.3698 3.64518,-9.42993 -3.090477,-19.59946 -6.154544,-22.4258 -1.241475,-1.21506 -1.294303,-1.74334 -0.686773,-1.71693 3.32821,2.95841 7.712997,8.90164 9.297857,15.58448 0.7396,3.06406 0.87167,6.2602 0.10565,9.42992 4.33196,1.79618 9.48276,4.72817 8.10921,9.1922 -0.58111,-0.0264 -0.84526,0 -1.1094,0 0.84526,-2.66785 -1.03016,-4.64893 -6.02247,-6.89415 -5.177217,-2.27163 -9.509173,-2.27163 -10.116703,3.3018 -3.196138,1.1094 -4.833829,3.88291 -5.652674,7.21112 -0.739602,2.95841 -0.950917,6.52435 -1.162232,10.53933 -0.132072,2.03391 -0.950917,4.75459 -1.796177,7.66017 -8.479011,6.04889 -20.259817,8.69032 -30.191618,1.90183 z m 67.990562,-3.03765 c -0.23773,4.43761 -10.882715,5.25646 -16.693875,12.28268 -3.48669,4.14706 -7.765815,6.44511 -11.516655,6.73566 -3.75084,0.29056 -6.999806,-1.26789 -8.90164,-5.09797 -1.241476,-2.93199 -0.633945,-6.10172 0.290558,-9.58842 0.977331,-3.75084 2.430121,-7.60733 2.615022,-10.72423 0.211314,-4.01498 0.449044,-7.52809 1.109403,-10.22236 0.686773,-2.72068 1.743348,-4.54327 3.618768,-5.57343 0.07924,-0.0528 0.1849,-0.0792 0.264143,-0.13207 0.211315,3.4867 1.928249,7.02622 4.965901,7.79224 3.32821,0.87167 8.10921,-1.98108 10.14311,-4.30554 2.37729,-0.0793 4.14706,-0.23773 5.969645,1.34713 2.61502,2.24522 1.87542,8.00355 4.51685,10.98838 2.79993,3.06406 3.69802,5.1508 3.61877,6.49793 z M 42.428375,204.02544 c 0.528288,0.50187 1.241475,1.18864 2.113149,1.87542 1.743348,1.37355 4.17347,2.79992 7.211122,2.79992 3.064066,0 5.943232,-1.55845 8.399768,-2.85275 1.294303,-0.68677 2.879165,-1.84901 3.909325,-2.74709 1.030161,-0.89809 1.558448,-1.66411 0.818846,-1.74335 -0.739602,-0.0793 -0.686774,0.68677 -1.584862,1.34713 -1.162232,0.84526 -2.562193,1.95466 -3.671597,2.58861 -1.954663,1.1094 -5.150801,2.69426 -7.897895,2.69426 -2.747093,0 -4.939486,-1.26789 -6.577176,-2.56219 -0.818845,-0.66036 -1.505619,-1.32072 -2.033906,-1.82259 -0.396216,-0.3698 -0.501873,-1.21506 -1.135818,-1.29431 -0.369801,-0.0264 -0.475458,0.97734 0.449044,1.71694 z"
       id="path4634"
       style="stroke-width:0.264144" />
    <g
       id="g4978">
      <path
         fill-rule="evenodd"
         clip-rule="evenodd"
         d="m 212.23733,31.891226 c -1.12287,-2.093696 -5.8424,-3.796539 -7.7874,-6.304079 8.58282,0.935228 10.87009,8.166007 15.57479,12.978986 -0.72052,-4.841903 -4.6335,-6.491347 -6.30408,-10.383189 0.66526,-0.04709 0.78208,0.453894 1.48331,0.370828 -0.47169,-1.505933 -3.39567,-0.559579 -3.70828,-2.224969 0.71273,-0.770952 3.10569,0.139061 3.33745,-1.112484 3.9356,0.885166 4.72584,4.915698 7.78739,6.674907 0.23548,-2.583931 -2.18046,-2.516811 -1.85414,-5.191595 6.76206,8.070705 12.44908,17.217182 15.20396,29.295427 2.8068,-1.222621 0.59815,-5.326576 0.74166,-8.15822 12.26699,8.962175 7.1644,34.609023 2.59579,48.207663 -5.32769,-6.08529 -2.19827,-20.489369 -2.22497,-30.037083 -4.02497,-4.436217 -10.15698,-14.081458 -11.12484,-21.137206 -10.31162,-0.99419 -12.60074,-11.983683 -23.36218,-13.349814 -1.38096,-0.175402 -3.38714,0.460197 -4.82076,0 -2.79419,-0.896663 -4.645,-4.951669 -7.04574,-6.674908 1.28344,-1.494808 5.39147,-0.215451 6.67491,-0.741656 -1.42509,-1.665389 -5.21236,-0.967861 -8.15822,-1.112484 9.75834,-4.398394 16.1136,5.666254 22.99135,8.899876 z"
         id="path4649"
         style="stroke-width:0.370828" />
      <path
         fill-rule="evenodd"
         clip-rule="evenodd"
         d="m 194.06675,29.295429 c -5.28245,1.761804 -6.83733,-2.919531 -9.64154,-4.820767 4.12732,-2.102966 7.65835,2.354388 9.64154,4.820767 z"
         id="path4651"
         style="stroke-width:0.370828" />
      <path
         fill-rule="evenodd"
         clip-rule="evenodd"
         d="m 174.78368,31.891226 c -0.98195,3.222868 -3.75464,7.863041 -7.78739,9.270704 0.32559,-3.879233 3.02559,-8.592089 7.78739,-9.270704 z"
         id="path4653"
         style="stroke-width:0.370828" />
      <path
         fill-rule="evenodd"
         clip-rule="evenodd"
         d="m 196.29171,72.682326 c 2.47565,1.726946 4.24228,4.163288 7.41657,5.191594 -0.11867,6.555872 -2.52163,10.828183 -7.41657,12.608158 0.80062,-4.014215 -2.33955,-4.08838 -2.22496,-7.416563 -5.98035,0.204326 -13.91904,-0.601113 -18.91224,-2.595798 1.73214,-6.796538 12.12237,-4.935723 18.54141,-7.045735 -3.84104,-1.100989 -10.80853,-0.643016 -14.09147,-1.112485 -0.1984,-5.909888 21.16835,-8.367367 20.76637,-2.224969 -0.12793,1.95204 -1.8838,2.038072 -4.07911,2.595798 z"
         id="path4655"
         style="stroke-width:0.370828" />
      <path
         fill-rule="evenodd"
         clip-rule="evenodd"
         d="m 229.66625,73.053154 c -0.12311,3.209147 -4.39431,3.423115 -7.41656,2.595797 1.16069,2.54759 5.54759,1.868974 7.78739,3.337454 0.0938,1.266007 0.93745,1.781829 0.74165,3.337453 -2.43671,-0.340049 -6.36897,-0.328924 -9.64153,0.370829 -1.00494,0.335599 0.31224,1.365018 0.74166,1.483312 -3.70087,3.348579 -10.27454,-0.04079 -11.12485,-3.337453 -1.34573,-5.218295 4.89901,-7.659456 5.56243,-11.866502 6.10939,-0.299629 8.78788,2.831273 13.34981,4.07911 z"
         id="path4657"
         style="stroke-width:0.370828" />
      <path
         fill-rule="evenodd"
         clip-rule="evenodd"
         d="m 189.98764,98.26947 c 1.53189,0.425711 2.91804,0.425711 4.44993,0 -2.04956,6.40569 9.61002,0.17911 10.75402,4.82077 0.0345,1.67243 -1.1199,-0.16206 -2.22497,0.37082 2.7916,7.9157 6.24586,-1.37651 10.01236,-2.22496 1.7644,5.5042 -5.16675,5.44042 -5.56242,10.01236 -1.02089,-0.21545 -1.54895,-0.92337 -2.5958,-1.11249 -0.80432,-0.0623 -0.16798,1.31533 -0.37083,1.85414 -7.1021,-1.74511 -14.55686,-6.01075 -22.62051,-4.44994 0.003,-5.55945 6.29184,-4.833 10.38318,-6.30407 -0.22212,-1.508163 -2.94363,-0.51768 -2.22496,-2.96663 z"
         id="path4659"
         style="stroke-width:0.370828" />
      <path
         fill-rule="evenodd"
         clip-rule="evenodd"
         d="m 151.4215,99.752783 c 1.85452,2.224597 2.69259,5.465637 6.67491,5.562427 -0.61409,1.48739 -0.6356,3.56699 -2.22497,4.07911 -4.41322,-0.28369 -4.56563,-4.82893 -4.44994,-9.641537 z"
         id="path4661"
         style="stroke-width:0.370828" />
      <path
         fill-rule="evenodd"
         clip-rule="evenodd"
         d="m 222.24969,106.79852 c 5.76823,11.62583 -14.1356,8.62398 -23.73301,9.2707 1.23004,1.61311 3.73313,1.95278 6.67491,1.85414 -7.0995,2.88356 -15.46057,-1.57008 -18.91224,-5.93325 -1.04573,0.0667 -0.46242,1.76255 -1.85414,1.48332 -1.3016,0.32521 -0.38566,-0.96156 0,-1.11249 -0.53028,-1.44734 -2.53646,-1.41879 -2.22497,-3.70828 10.88344,2.57281 26.88542,7.25785 38.56613,2.22497 0.73721,-2.23461 -1.66131,-3.26403 -1.11248,-4.07911 1.35612,-0.0808 1.4225,-0.50952 2.5958,0 z"
         id="path4663"
         style="stroke-width:0.370828" />
      <path
         fill-rule="evenodd"
         clip-rule="evenodd"
         d="m 204.07911,122.00247 c 0.54993,0.31521 0.79728,0.93338 0.74165,1.85414 -1.08356,0.77059 -3.55364,0.15464 -4.07911,1.48332 -0.43238,-0.92744 -1.29308,-1.42621 -1.11248,-2.96663 1.13547,-1.25154 3.58665,0.66972 4.44994,-0.37083 z"
         id="path4665"
         style="stroke-width:0.370828" />
      <path
         fill-rule="evenodd"
         clip-rule="evenodd"
         d="m 165.51298,129.04821 c 1.40988,0.83547 3.14573,1.53523 5.19159,0.74166 0.0964,1.13955 0.80433,1.66761 1.11248,2.59579 11.47677,4.345 17.67516,13.96873 31.14957,16.31644 -0.33745,0.65155 -1.29938,0.67825 -1.85414,1.11249 0.90816,1.75142 2.2665,4.39431 1.11249,7.04573 -1.5445,0.18616 -2.034,1.42695 -3.70829,1.48332 -0.14684,0.8885 1.68913,-0.20581 1.11249,1.11248 -1.91718,1.72027 -3.27664,-1.02794 -4.07911,-2.5958 -16.22818,-0.63745 -26.0733,-13.56786 -32.26205,-24.47466 -0.0786,-1.71656 1.32237,0.36453 1.85414,-0.74165 0.004,-0.98492 -0.14018,-2.1178 0.37083,-2.5958 z"
         id="path4667"
         style="stroke-width:0.370828" />
      <path
         fill-rule="evenodd"
         clip-rule="evenodd"
         d="m 227.81211,169.83931 c 6.05822,8.34178 14.23424,19.45216 10.01236,34.48702 -1.75624,0.14907 -2.55204,-0.66193 -4.44994,-0.37083 -2.03288,-15.02521 -10.26601,-23.85018 -14.09147,-37.08282 -1.95463,0.51768 -0.34079,4.60346 -2.5958,4.82077 2.62139,-10.11063 7.61719,-17.84648 8.15822,-30.03708 1.88529,7.04462 6.69864,12.18133 11.49568,17.79975 11.7089,13.71397 28.3728,34.91199 20.76638,60.44499 -1.25971,-0.34709 -2.7178,-0.49616 -4.07911,-0.74165 1.56415,-8.39815 -6.36416,-10.42028 -11.49568,-13.34982 2.21755,-16.19481 -5.20568,-28.14511 -13.72064,-35.97033 z m 15.20395,7.41656 c 0.70235,-0.5351 3.30594,0.58257 3.33746,-0.37083 0.84363,-0.9304 -0.63746,-2.2016 -1.11249,-2.96662 -4.86637,-7.84153 -11.77268,-16.26045 -17.42892,-21.50804 6.09716,7.25229 9.87145,16.82819 15.20395,24.84549 z"
         id="path4669"
         style="stroke-width:0.370828" />
      <path
         fill-rule="evenodd"
         clip-rule="evenodd"
         d="m 190.72929,171.32262 c 1.40433,6.01224 10.22893,4.6042 11.49568,10.75402 -10.99432,-3.59184 -16.13808,-13.03387 -25.58715,-18.17058 -2.68442,1.13807 0.6738,4.56304 -0.74166,6.67491 -0.88813,0.22398 -1.69208,0.53325 -2.96662,0.37082 -0.78504,-0.77911 0.43609,-1.44586 0.74166,-2.22497 -0.42127,-0.86848 -1.24005,0.9497 -1.48332,1.48332 -1.63572,-1.45439 -3.40939,-2.7712 -4.44994,-4.82077 -5.86019,15.02967 -14.766,27.01409 -15.94561,46.72435 -9.18022,-11.50902 -0.46835,-29.5932 4.82077,-38.93696 -5.81904,10.08801 -13.58974,18.36823 -11.49567,33.00371 1.29604,9.05748 8.57466,13.15884 13.72064,16.68727 5.55055,3.80581 12.92855,9.18615 14.09147,15.94561 0.69271,4.02682 -2.44635,7.93387 -6.30408,7.04574 -3.6115,-0.8314 -9.21545,-13.41546 -11.12485,-17.0581 -3.65784,-6.97787 -12.23955,-19.75958 -21.87886,-11.49567 -2.09073,-28.06984 14.53498,-43.79333 26.3288,-60.445 -1.20964,-3.73646 -5.64808,-6.21582 -6.6749,-8.89987 7.84783,2.65883 10.36131,10.65241 16.31644,15.20395 3.99085,-3.54363 10.52929,-7.67466 18.17058,-5.19159 0.40865,1.89233 -2.63363,0.33263 -2.22497,2.22497 0.8351,1.57639 3.08417,0.14573 4.44994,0 1.05611,1.51594 -2.19123,1.3639 -2.22497,2.96662 0.11607,1.86193 2.36477,1.59085 3.70828,2.22497 1.65018,-0.0805 1.24969,-2.21125 2.5958,-2.5958 4.11322,1.4492 7.45438,3.67046 10.38318,6.30408 -3.77503,2.61657 -11.00432,9.11348 -13.72064,2.22497 z m -47.83683,12.97899 c 2.00321,0.0274 1.96539,0.16724 3.33745,0.37083 3.45056,-7.92164 9.19876,-13.54524 12.23733,-21.87887 -6.83066,5.53016 -11.54017,13.18183 -15.57478,21.50804 z"
         id="path4671"
         style="stroke-width:0.370828" />
      <path
         fill-rule="evenodd"
         clip-rule="evenodd"
         fill="#ffffff"
         d="m 158.46724,162.79357 c -3.03857,8.33363 -8.78677,13.95723 -12.23733,21.87887 -1.37206,-0.20359 -1.33424,-0.34339 -3.33745,-0.37083 4.03461,-8.32621 8.74412,-15.97788 15.57478,-21.50804 z"
         id="path4673"
         style="stroke-width:0.370828" />
      <path
         fill-rule="evenodd"
         clip-rule="evenodd"
         d="m 209.2707,180.59333 c -1.20556,13.67985 0.19691,27.65599 1.48331,40.04944 -1.73399,-4.04277 -3.64783,-9.15464 -2.96662,-14.4623 -0.31372,-0.9623 -1.62683,0.71347 -2.22497,-0.37083 0.23696,-9.12423 5.69555,-26.69814 -4.44994,-30.03708 -0.0604,-0.43127 0.082,-0.6597 0.37083,-0.74166 4.52039,-1.51223 5.08924,4.0272 7.78739,5.56243 z"
         id="path4675"
         style="stroke-width:0.370828" />
      <path
         fill-rule="evenodd"
         clip-rule="evenodd"
         d="m 233.74536,207.29295 c 5.02732,-0.83881 17.70371,4.01533 18.17058,9.64154 0.49172,5.93065 -9.94858,12.52954 -16.68727,11.12484 -7.18331,-1.4974 -11.13003,-19.15698 -1.48331,-20.76638 z m -3.70828,7.7874 c 5.87132,-0.7094 8.87725,0.62076 15.20395,-0.74166 -2.69925,-3.55402 -15.58998,-9.60742 -15.20395,0.74166 z"
         id="path4677"
         style="stroke-width:0.370828" />
      <path
         fill-rule="evenodd"
         clip-rule="evenodd"
         fill="#ffffff"
         d="m 245.24103,214.33869 c -6.3267,1.36242 -9.33263,0.0323 -15.20395,0.74166 -0.38603,-10.34908 12.5047,-4.29568 15.20395,-0.74166 z"
         id="path4679"
         style="stroke-width:0.370828" />
      <path
         fill-rule="evenodd"
         clip-rule="evenodd"
         d="m 215.20395,250.67985 c 0.72052,3.58665 -3.31632,10.75736 -1.48331,16.68727 -5.44932,1.23189 -10.92349,-0.69716 -16.31644,-1.11248 -8.22645,-0.63375 -15.80655,1.96761 -23.733,2.22496 2.52237,-4.85636 0.44536,-11.80568 -1.85415,-15.20395 10.67392,9.2466 34.58678,6.29852 43.3869,-2.5958 z"
         id="path4681"
         style="stroke-width:0.370828" />
      <path
         fill-rule="evenodd"
         clip-rule="evenodd"
         fill="#ffffff"
         d="m 227.81211,152.41038 c 5.65624,5.24759 12.56255,13.66651 17.42892,21.50804 0.47503,0.76502 1.95612,2.03622 1.11249,2.96662 -0.0315,0.9534 -2.63511,-0.16427 -3.33746,0.37083 -5.3325,-8.0173 -9.10679,-17.5932 -15.20395,-24.84549 z"
         id="path4685"
         style="stroke-width:0.370828" />
      <path
         fill-rule="evenodd"
         clip-rule="evenodd"
         d="m 167.36712,42.274415 c -0.54364,1.063164 -1.43808,1.775896 -2.22497,2.595797 -0.26515,1.006799 1.74845,-0.265142 1.48331,0.741657 -3.82435,14.3466 -0.70124,35.639925 -9.64153,44.870209 0.0497,1.680964 0.90741,2.553894 1.11248,4.07911 -0.58479,1.143264 -1.4314,-0.654141 -2.96662,-1.483312 -2.29988,-1.242275 -5.11261,-1.770705 -3.70829,-5.933251 1.70656,0.276267 2.40705,-1.771817 3.70829,-0.741657 -0.0464,-1.313473 -0.60927,-2.110383 -1.11249,-2.966625 -2.86316,-0.143881 -1.77033,3.668232 -4.82076,3.337454 -3.72831,-16.146601 -1.04574,-36.246601 10.75401,-41.532757 -0.26811,-1.133251 0.37899,-1.351298 0.37083,-2.224969 0.80396,-0.0623 0.16799,1.315328 0.37083,1.854141 1.85636,0.169469 3.19691,-3.172064 6.67491,-2.595797 z"
         id="path4687"
         style="stroke-width:0.370828" />
    </g>
  </g>
</svg>
